<svg xmlns="http://www.w3.org/2000/svg" xmlns:xlink="http://www.w3.org/1999/xlink" width="500" zoomAndPan="magnify" viewBox="0 0 375 374.999991" height="500" preserveAspectRatio="xMidYMid meet" version="1.0"><defs><filter x="0%" y="0%" width="100%" height="100%" id="168f38e6cd"><feColorMatrix values="0 0 0 0 1 0 0 0 0 1 0 0 0 0 1 0 0 0 1 0" color-interpolation-filters="sRGB"/></filter><clipPath id="ea0135f454"><path d="M 22.734375 0 L 351.984375 0 L 351.984375 374 L 22.734375 374 Z M 22.734375 0 " clip-rule="nonzero"/></clipPath><mask id="3bbfeb337e"><g filter="url(#168f38e6cd)"><rect x="-37.5" width="450" fill="#000000" y="-37.499999" height="449.999989" fill-opacity="0.25"/></g></mask><clipPath id="84fbcfd4d6"><path d="M 2 0.71875 L 168 0.71875 L 168 129 L 2 129 Z M 2 0.71875 " clip-rule="nonzero"/></clipPath><clipPath id="a0be800b52"><path d="M 0.734375 124 L 168 124 L 168 373.441406 L 0.734375 373.441406 Z M 0.734375 124 " clip-rule="nonzero"/></clipPath><clipPath id="f773bb1a6e"><path d="M 163 0.71875 L 329 0.71875 L 329 129 L 163 129 Z M 163 0.71875 " clip-rule="nonzero"/></clipPath><clipPath id="7ab0daf9cf"><path d="M 162 124 L 329.984375 124 L 329.984375 373.441406 L 162 373.441406 Z M 162 124 " clip-rule="nonzero"/></clipPath><clipPath id="0fcbd4b01b"><rect x="0" width="330" y="0" height="374"/></clipPath><clipPath id="5ed420e529"><path d="M 186 91 L 351.984375 91 L 351.984375 375 L 186 375 Z M 186 91 " clip-rule="nonzero"/></clipPath><clipPath id="4eee7b2e57"><path d="M 162.054688 219 L 213 219 L 213 231.84375 L 162.054688 231.84375 Z M 162.054688 219 " clip-rule="nonzero"/></clipPath><clipPath id="ef42b4b3a9"><path d="M 162.054688 143.34375 L 213 143.34375 L 213 156 L 162.054688 156 Z M 162.054688 143.34375 " clip-rule="nonzero"/></clipPath></defs><g clip-path="url(#ea0135f454)"><g mask="url(#3bbfeb337e)"><g transform="matrix(1, 0, 0, 1, 22, 0)"><g clip-path="url(#0fcbd4b01b)"><g clip-path="url(#84fbcfd4d6)"><path fill="#480e30" d="M 75.589844 128.871094 C 75.273438 128.875 74.96875 128.804688 74.679688 128.667969 L 2.925781 95.328125 L 4.75 91.386719 L 74.867188 123.9375 L 163.6875 0.726562 L 167.210938 3.261719 L 77.339844 127.921875 C 76.917969 128.539062 76.335938 128.855469 75.589844 128.871094 Z M 75.589844 128.871094 " fill-opacity="1" fill-rule="nonzero"/></g><g clip-path="url(#a0be800b52)"><path fill="#480e30" d="M 167.636719 373.128906 L 163.289062 373.128906 L 163.609375 294.332031 L 2.976562 283.96875 C 2.800781 283.957031 2.625 283.925781 2.457031 283.871094 C 2.289062 283.816406 2.128906 283.746094 1.980469 283.652344 C 1.828125 283.558594 1.691406 283.449219 1.566406 283.324219 C 1.441406 283.199219 1.335938 283.058594 1.242188 282.90625 C 1.152344 282.757812 1.082031 282.59375 1.03125 282.425781 C 0.980469 282.257812 0.949219 282.082031 0.941406 281.90625 C 0.933594 281.730469 0.945312 281.554688 0.980469 281.382812 C 1.011719 281.207031 1.066406 281.039062 1.140625 280.878906 L 73.621094 125.777344 C 73.792969 125.40625 74.050781 125.105469 74.394531 124.882812 C 74.738281 124.65625 75.117188 124.535156 75.527344 124.523438 L 75.589844 124.523438 C 75.988281 124.523438 76.359375 124.625 76.699219 124.828125 C 77.039062 125.03125 77.308594 125.304688 77.496094 125.65625 L 167.703125 291.238281 C 167.882812 291.566406 167.96875 291.914062 167.972656 292.289062 Z M 6.433594 279.835938 L 162 289.851562 L 75.75 131.519531 Z M 6.433594 279.835938 " fill-opacity="1" fill-rule="nonzero"/></g><path fill="#480e30" d="M 75.589844 124.523438 L 165.464844 124.523438 L 165.464844 128.871094 L 75.589844 128.871094 Z M 75.589844 124.523438 " fill-opacity="1" fill-rule="nonzero"/><g clip-path="url(#f773bb1a6e)"><path fill="#480e30" d="M 255.335938 128.871094 C 254.59375 128.871094 254.007812 128.570312 253.574219 127.964844 L 163.703125 3.304688 L 167.226562 0.769531 L 256.0625 123.9375 L 326.191406 91.359375 L 328.015625 95.300781 L 256.265625 128.640625 C 255.972656 128.789062 255.664062 128.867188 255.335938 128.871094 Z M 255.335938 128.871094 " fill-opacity="1" fill-rule="nonzero"/></g><g clip-path="url(#7ab0daf9cf)"><path fill="#480e30" d="M 163.289062 373.128906 L 162.964844 292.289062 C 162.957031 291.914062 163.046875 291.566406 163.222656 291.238281 L 253.429688 125.65625 C 253.625 125.296875 253.902344 125.015625 254.257812 124.808594 C 254.613281 124.605469 254.996094 124.511719 255.40625 124.523438 C 255.816406 124.539062 256.191406 124.65625 256.535156 124.882812 C 256.875 125.109375 257.132812 125.40625 257.308594 125.777344 L 329.785156 280.878906 C 329.859375 281.039062 329.914062 281.207031 329.949219 281.382812 C 329.980469 281.554688 329.996094 281.730469 329.984375 281.90625 C 329.976562 282.082031 329.945312 282.257812 329.894531 282.425781 C 329.84375 282.59375 329.773438 282.757812 329.683594 282.90625 C 329.59375 283.058594 329.484375 283.199219 329.363281 283.324219 C 329.238281 283.449219 329.101562 283.558594 328.949219 283.652344 C 328.796875 283.746094 328.636719 283.816406 328.46875 283.871094 C 328.300781 283.925781 328.128906 283.957031 327.953125 283.96875 L 167.320312 294.316406 L 167.636719 373.117188 Z M 255.191406 131.519531 L 168.941406 289.851562 L 324.496094 279.835938 Z M 255.191406 131.519531 " fill-opacity="1" fill-rule="nonzero"/></g><path fill="#480e30" d="M 165.464844 124.523438 L 255.335938 124.523438 L 255.335938 128.871094 L 165.464844 128.871094 Z M 165.464844 124.523438 " fill-opacity="1" fill-rule="nonzero"/></g></g></g></g><path fill="#480e30" d="M 186.398438 375.015625 L 24.390625 283.53125 C 24.046875 283.339844 23.78125 283.074219 23.582031 282.734375 C 23.386719 282.398438 23.285156 282.03125 23.289062 281.640625 L 23.289062 93.84375 C 23.289062 93.59375 23.332031 93.355469 23.414062 93.121094 C 23.496094 92.886719 23.617188 92.671875 23.777344 92.480469 C 23.933594 92.285156 24.117188 92.125 24.328125 91.996094 C 24.542969 91.867188 24.769531 91.777344 25.011719 91.726562 C 25.257812 91.671875 25.5 91.664062 25.746094 91.695312 C 25.996094 91.730469 26.226562 91.804688 26.449219 91.914062 C 26.671875 92.027344 26.867188 92.175781 27.039062 92.355469 C 27.210938 92.535156 27.347656 92.738281 27.449219 92.96875 L 102.484375 264.261719 L 98.496094 266 L 27.621094 104.222656 L 27.621094 280.34375 L 188.523438 371.203125 Z M 186.398438 375.015625 " fill-opacity="1" fill-rule="nonzero"/><path fill="#480e30" d="M 185.769531 374.484375 L 98.792969 266.492188 C 98.523438 266.15625 98.363281 265.769531 98.324219 265.335938 C 98.285156 264.902344 98.367188 264.492188 98.570312 264.109375 L 183.933594 104.054688 L 25.332031 96.011719 L 25.554688 91.664062 L 187.574219 99.875 C 187.945312 99.894531 188.289062 100 188.605469 100.195312 C 188.921875 100.390625 189.171875 100.652344 189.355469 100.976562 C 189.535156 101.300781 189.625 101.652344 189.625 102.023438 C 189.625 102.394531 189.535156 102.746094 189.355469 103.070312 L 103.085938 264.882812 L 189.160156 371.761719 Z M 185.769531 374.484375 " fill-opacity="1" fill-rule="nonzero"/><path fill="#480e30" d="M 25.910156 283.765625 L 24.976562 279.519531 L 100.027344 263.007812 C 100.179688 262.972656 100.332031 262.957031 100.492188 262.957031 L 187.464844 262.957031 L 187.464844 267.304688 L 100.730469 267.304688 Z M 25.910156 283.765625 " fill-opacity="1" fill-rule="nonzero"/><g clip-path="url(#5ed420e529)"><path fill="#480e30" d="M 188.527344 375.015625 L 186.398438 371.230469 L 347.300781 280.371094 L 347.300781 104.253906 L 276.429688 265.992188 L 272.445312 264.253906 L 347.496094 92.96875 C 347.59375 92.738281 347.730469 92.53125 347.902344 92.347656 C 348.070312 92.167969 348.269531 92.019531 348.492188 91.902344 C 348.714844 91.789062 348.949219 91.714844 349.195312 91.679688 C 349.445312 91.648438 349.691406 91.65625 349.9375 91.707031 C 350.179688 91.761719 350.410156 91.851562 350.621094 91.980469 C 350.835938 92.113281 351.019531 92.273438 351.179688 92.46875 C 351.335938 92.664062 351.457031 92.878906 351.539062 93.113281 C 351.621094 93.351562 351.664062 93.59375 351.664062 93.84375 L 351.664062 281.640625 C 351.660156 282.035156 351.558594 282.402344 351.355469 282.738281 C 351.15625 283.078125 350.882812 283.34375 350.539062 283.53125 Z M 188.527344 375.015625 " fill-opacity="1" fill-rule="nonzero"/></g><path fill="#480e30" d="M 189.160156 374.484375 L 185.769531 371.761719 L 271.84375 264.882812 L 185.542969 103.078125 C 185.363281 102.75 185.273438 102.402344 185.273438 102.03125 C 185.273438 101.660156 185.363281 101.308594 185.542969 100.984375 C 185.726562 100.660156 185.976562 100.398438 186.292969 100.203125 C 186.609375 100.007812 186.953125 99.902344 187.324219 99.882812 L 349.34375 91.667969 L 349.566406 96.019531 L 190.964844 104.0625 L 276.359375 264.109375 C 276.5625 264.492188 276.644531 264.902344 276.601562 265.335938 C 276.5625 265.769531 276.40625 266.15625 276.132812 266.492188 Z M 189.160156 374.484375 " fill-opacity="1" fill-rule="nonzero"/><path fill="#480e30" d="M 349.015625 283.765625 L 274.199219 267.304688 L 187.464844 267.304688 L 187.464844 262.957031 L 274.4375 262.957031 C 274.59375 262.957031 274.75 262.972656 274.902344 263.007812 L 349.953125 279.519531 Z M 349.015625 283.765625 " fill-opacity="1" fill-rule="nonzero"/><path fill="#480e30" d="M 186.722656 3.78125 L 188.859375 -0.00390625 L 350.882812 91.476562 L 348.746094 95.261719 Z M 186.722656 3.78125 " fill-opacity="1" fill-rule="nonzero"/><path fill="#480e30" d="M 24.695312 91.476562 L 186.734375 0.0234375 L 188.871094 3.8125 L 26.832031 95.265625 Z M 24.695312 91.476562 " fill-opacity="1" fill-rule="nonzero"/><path fill="#480e30" d="M 185.621094 1.890625 L 189.972656 1.890625 L 189.972656 102.054688 L 185.621094 102.054688 Z M 185.621094 1.890625 " fill-opacity="1" fill-rule="nonzero"/><g clip-path="url(#4eee7b2e57)"><path fill="#480e30" d="M 165.101562 222.339844 C 164.898438 222.339844 164.734375 222.503906 164.734375 222.707031 L 164.734375 228.609375 C 164.734375 228.8125 164.898438 228.976562 165.101562 228.976562 L 209.898438 228.976562 C 210.101562 228.976562 210.265625 228.8125 210.265625 228.609375 L 210.265625 222.707031 C 210.265625 222.503906 210.101562 222.339844 209.898438 222.339844 Z M 209.898438 231.652344 L 165.101562 231.652344 C 163.421875 231.652344 162.058594 230.289062 162.058594 228.609375 L 162.058594 222.707031 C 162.058594 221.027344 163.421875 219.664062 165.101562 219.664062 L 209.898438 219.664062 C 211.574219 219.664062 212.941406 221.027344 212.941406 222.707031 L 212.941406 228.609375 C 212.941406 230.289062 211.574219 231.652344 209.898438 231.652344 " fill-opacity="1" fill-rule="nonzero"/></g><path fill="#480e30" d="M 205.339844 222.339844 C 204.601562 222.339844 204 221.742188 204 221 L 204 219.550781 C 204 206.875 197.570312 195.316406 186.792969 188.636719 C 175.226562 181.464844 168.320312 169.054688 168.320312 155.445312 L 168.320312 153.996094 C 168.320312 153.257812 168.917969 152.65625 169.660156 152.65625 C 170.398438 152.65625 170.996094 153.257812 170.996094 153.996094 L 170.996094 155.445312 C 170.996094 168.125 177.429688 179.679688 188.203125 186.359375 C 199.769531 193.535156 206.679688 205.941406 206.679688 219.550781 L 206.679688 221 C 206.679688 221.742188 206.078125 222.339844 205.339844 222.339844 " fill-opacity="1" fill-rule="nonzero"/><path fill="#480e30" d="M 193.351562 184.363281 C 192.996094 184.363281 192.636719 184.21875 192.371094 183.9375 C 191.867188 183.398438 191.898438 182.550781 192.4375 182.046875 C 199.785156 175.1875 204 165.492188 204 155.445312 L 204 153.996094 C 204 153.257812 204.601562 152.65625 205.339844 152.65625 C 206.078125 152.65625 206.679688 153.257812 206.679688 153.996094 L 206.679688 155.445312 C 206.679688 166.234375 202.152344 176.644531 194.265625 184.003906 C 194.007812 184.242188 193.679688 184.363281 193.351562 184.363281 " fill-opacity="1" fill-rule="nonzero"/><path fill="#480e30" d="M 169.660156 222.339844 C 168.917969 222.339844 168.320312 221.742188 168.320312 221 L 168.320312 219.550781 C 168.320312 208.429688 173.082031 197.808594 181.378906 190.40625 C 181.929688 189.914062 182.777344 189.960938 183.269531 190.515625 C 183.761719 191.066406 183.714844 191.910156 183.160156 192.402344 C 175.429688 199.296875 170.996094 209.191406 170.996094 219.550781 L 170.996094 221 C 170.996094 221.742188 170.398438 222.339844 169.660156 222.339844 " fill-opacity="1" fill-rule="nonzero"/><g clip-path="url(#ef42b4b3a9)"><path fill="#480e30" d="M 165.101562 146.019531 C 164.898438 146.019531 164.734375 146.183594 164.734375 146.386719 L 164.734375 152.289062 C 164.734375 152.492188 164.898438 152.65625 165.101562 152.65625 L 209.898438 152.65625 C 210.101562 152.65625 210.265625 152.492188 210.265625 152.289062 L 210.265625 146.386719 C 210.265625 146.183594 210.101562 146.019531 209.898438 146.019531 Z M 209.898438 155.332031 L 165.101562 155.332031 C 163.421875 155.332031 162.058594 153.96875 162.058594 152.289062 L 162.058594 146.386719 C 162.058594 144.707031 163.421875 143.34375 165.101562 143.34375 L 209.898438 143.34375 C 211.574219 143.34375 212.941406 144.707031 212.941406 146.386719 L 212.941406 152.289062 C 212.941406 153.96875 211.574219 155.332031 209.898438 155.332031 " fill-opacity="1" fill-rule="nonzero"/></g></svg>