<svg xmlns="http://www.w3.org/2000/svg" xmlns:xlink="http://www.w3.org/1999/xlink" width="500" zoomAndPan="magnify" viewBox="0 0 375 374.999991" height="500" preserveAspectRatio="xMidYMid meet" version="1.0"><defs><clipPath id="8bd04523fe"><path d="M 79.121094 228.617188 L 239.621094 228.617188 L 239.621094 316 L 79.121094 316 Z M 79.121094 228.617188 " clip-rule="nonzero"/></clipPath></defs><path fill="#480e30" d="M 368.304688 7.035156 L 368.304688 367.964844 C 360.664062 366.40625 354.910156 359.644531 354.910156 351.5625 L 354.910156 23.4375 C 354.910156 15.355469 360.664062 8.59375 368.304688 7.035156 Z M 371.652344 375 C 373.496094 375 375 373.496094 375 371.652344 L 375 3.347656 C 375 1.503906 373.496094 0 371.652344 0 C 358.730469 0 348.214844 10.515625 348.214844 23.4375 L 348.214844 351.5625 C 348.214844 364.484375 358.730469 375 371.652344 375 " fill-opacity="1" fill-rule="nonzero"/><path fill="#480e30" d="M 16.742188 120.535156 L 351.5625 120.535156 C 353.40625 120.535156 354.910156 119.03125 354.910156 117.1875 C 354.910156 115.34375 353.40625 113.839844 351.5625 113.839844 L 16.742188 113.839844 C 11.207031 113.839844 6.695312 109.339844 6.695312 103.792969 C 6.695312 98.25 11.207031 93.75 16.742188 93.75 C 18.597656 93.75 20.089844 92.246094 20.089844 90.402344 C 20.089844 88.558594 18.597656 87.054688 16.742188 87.054688 C 7.507812 87.054688 0 94.5625 0 103.792969 C 0 113.027344 7.507812 120.535156 16.742188 120.535156 " fill-opacity="1" fill-rule="nonzero"/><path fill="#480e30" d="M 97.097656 154.019531 C 102.644531 154.019531 107.144531 158.515625 107.144531 164.0625 C 107.144531 169.609375 102.644531 174.105469 97.097656 174.105469 C 91.550781 174.105469 87.054688 169.609375 87.054688 164.0625 C 87.054688 158.515625 91.550781 154.019531 97.097656 154.019531 Z M 97.097656 180.804688 C 106.332031 180.804688 113.839844 173.296875 113.839844 164.0625 C 113.839844 154.828125 106.332031 147.320312 97.097656 147.320312 C 87.863281 147.320312 80.355469 154.828125 80.355469 164.0625 C 80.355469 173.296875 87.863281 180.804688 97.097656 180.804688 " fill-opacity="1" fill-rule="nonzero"/><path fill="#480e30" d="M 231.027344 154.019531 C 236.570312 154.019531 241.070312 158.515625 241.070312 164.0625 C 241.070312 169.609375 236.570312 174.105469 231.027344 174.105469 C 225.480469 174.105469 220.980469 169.609375 220.980469 164.0625 C 220.980469 158.515625 225.480469 154.019531 231.027344 154.019531 Z M 231.027344 180.804688 C 240.261719 180.804688 247.769531 173.296875 247.769531 164.0625 C 247.769531 154.828125 240.261719 147.320312 231.027344 147.320312 C 221.792969 147.320312 214.285156 154.828125 214.285156 164.0625 C 214.285156 173.296875 221.792969 180.804688 231.027344 180.804688 " fill-opacity="1" fill-rule="nonzero"/><path fill="#480e30" d="M 267.921875 341.519531 L 60.148438 341.519531 C 58.59375 319.492188 41.789062 302.425781 20.089844 300.828125 L 20.089844 240.941406 C 41.421875 239.304688 58.515625 222.226562 60.136719 200.894531 L 267.9375 200.894531 C 269.453125 222.917969 285.984375 239.4375 308.035156 240.953125 L 308.035156 300.816406 C 285.617188 302.308594 269.375 318.785156 267.921875 341.519531 Z M 56.917969 348.214844 L 271.167969 348.214844 C 273.011719 348.214844 274.515625 346.710938 274.515625 344.867188 C 274.515625 323.15625 290.011719 307.394531 311.382812 307.394531 C 313.226562 307.394531 314.730469 305.902344 314.730469 304.046875 L 314.730469 237.722656 C 314.730469 235.878906 313.226562 234.375 311.382812 234.375 C 290.367188 234.375 274.515625 218.535156 274.515625 197.542969 C 274.515625 195.699219 273.011719 194.195312 271.167969 194.195312 L 56.917969 194.195312 C 55.0625 194.195312 53.570312 195.699219 53.570312 197.542969 C 53.570312 217.855469 37.050781 234.375 16.742188 234.375 C 14.882812 234.375 13.394531 235.878906 13.394531 237.722656 L 13.394531 304.046875 C 13.394531 305.902344 14.882812 307.394531 16.742188 307.394531 C 37.394531 307.394531 53.570312 323.859375 53.570312 344.867188 C 53.570312 346.710938 55.0625 348.214844 56.917969 348.214844 " fill-opacity="1" fill-rule="nonzero"/><path fill="#480e30" d="M 251.796875 321.429688 L 76.132812 321.429688 C 69.777344 304.558594 56.855469 291.453125 40.179688 284.964844 L 40.179688 256.6875 C 56.332031 250.253906 69.4375 237.132812 75.882812 220.980469 L 252.042969 220.980469 C 258.441406 237.578125 271.335938 250.460938 287.945312 256.859375 L 287.945312 284.808594 C 271.046875 291.175781 258.046875 304.347656 251.796875 321.429688 Z M 73.777344 328.125 L 254.175781 328.125 C 255.628906 328.125 256.921875 327.195312 257.367188 325.808594 C 262.859375 308.871094 275.613281 295.9375 292.355469 290.339844 C 293.714844 289.882812 294.644531 288.613281 294.644531 287.160156 L 294.644531 254.515625 C 294.644531 253.078125 293.726562 251.808594 292.378906 251.339844 C 275.902344 245.703125 263.199219 233.015625 257.550781 216.546875 C 257.09375 215.203125 255.8125 214.285156 254.386719 214.285156 L 73.570312 214.285156 C 72.144531 214.285156 70.886719 215.175781 70.417969 216.507812 C 64.726562 232.558594 51.753906 245.53125 35.707031 251.21875 C 34.371094 251.691406 33.480469 252.945312 33.480469 254.371094 L 33.480469 287.304688 C 33.480469 288.730469 34.382812 290 35.730469 290.46875 C 52.277344 296.199219 64.988281 309.09375 70.601562 325.835938 C 71.058594 327.210938 72.339844 328.125 73.777344 328.125 " fill-opacity="1" fill-rule="nonzero"/><path fill="#480e30" d="M 97.097656 200.894531 C 98.941406 200.894531 100.445312 199.390625 100.445312 197.542969 L 100.445312 177.457031 C 100.445312 175.609375 98.941406 174.105469 97.097656 174.105469 C 95.253906 174.105469 93.75 175.609375 93.75 177.457031 L 93.75 197.542969 C 93.75 199.390625 95.253906 200.894531 97.097656 200.894531 " fill-opacity="1" fill-rule="nonzero"/><path fill="#480e30" d="M 231.027344 200.894531 C 232.871094 200.894531 234.375 199.390625 234.375 197.542969 L 234.375 177.457031 C 234.375 175.609375 232.871094 174.105469 231.027344 174.105469 C 229.183594 174.105469 227.679688 175.609375 227.679688 177.457031 L 227.679688 197.542969 C 227.679688 199.390625 229.183594 200.894531 231.027344 200.894531 " fill-opacity="1" fill-rule="nonzero"/><path fill="#480e30" d="M 97.097656 154.019531 C 98.941406 154.019531 100.445312 152.515625 100.445312 150.667969 L 100.445312 117.1875 C 100.445312 115.34375 98.941406 113.839844 97.097656 113.839844 C 95.253906 113.839844 93.75 115.34375 93.75 117.1875 L 93.75 150.667969 C 93.75 152.515625 95.253906 154.019531 97.097656 154.019531 " fill-opacity="1" fill-rule="nonzero"/><path fill="#480e30" d="M 231.027344 154.019531 C 232.871094 154.019531 234.375 152.515625 234.375 150.667969 L 234.375 117.1875 C 234.375 115.34375 232.871094 113.839844 231.027344 113.839844 C 229.183594 113.839844 227.679688 115.34375 227.679688 117.1875 L 227.679688 150.667969 C 227.679688 152.515625 229.183594 154.019531 231.027344 154.019531 " fill-opacity="1" fill-rule="nonzero"/><path fill="#480e30" d="M 139.132812 76.445312 Z M 124.5 111.8125 C 125.503906 111.8125 126.511719 111.355469 127.179688 110.476562 C 128.292969 109 127.992188 106.894531 126.511719 105.796875 C 121.03125 101.675781 117.1875 84.660156 117.1875 77.007812 C 117.1875 59.730469 126.160156 50.222656 142.457031 50.222656 C 155 50.222656 160.714844 58.90625 160.714844 66.964844 C 160.714844 82.984375 147.453125 83.707031 147.320312 83.707031 C 144.507812 83.707031 142.429688 82.789062 141.160156 80.972656 C 139.828125 79.074219 139.683594 76.695312 139.851562 75.804688 C 140.769531 74.695312 140.898438 73.070312 140.0625 71.804688 C 139.042969 70.261719 136.960938 69.839844 135.417969 70.875 C 132.738281 72.652344 132.671875 77.269531 133.746094 80.800781 C 135.550781 86.804688 140.636719 90.402344 147.320312 90.402344 C 152.527344 90.402344 167.410156 86.097656 167.410156 66.964844 C 167.410156 55.3125 158.84375 43.527344 142.457031 43.527344 C 122.445312 43.527344 110.492188 56.042969 110.492188 77.007812 C 110.492188 84.410156 113.945312 104.734375 122.484375 111.144531 C 123.085938 111.601562 123.792969 111.8125 124.5 111.8125 " fill-opacity="1" fill-rule="nonzero"/><path fill="#480e30" d="M 80.226562 120.535156 C 90.324219 120.535156 97.097656 113.8125 97.097656 103.792969 C 97.097656 98.394531 92.246094 91.226562 86.214844 90.429688 C 83.613281 90.085938 79.847656 90.609375 77.035156 93.070312 C 75.492188 94.417969 73.660156 96.902344 73.660156 101.046875 C 73.660156 102.890625 75.164062 104.394531 77.007812 104.394531 C 78.851562 104.394531 80.355469 102.890625 80.355469 101.046875 C 80.355469 99.714844 80.710938 98.746094 81.457031 98.105469 C 82.566406 97.125 84.398438 96.953125 85.339844 97.070312 C 87.523438 97.359375 90.402344 101.191406 90.402344 103.792969 C 90.402344 110.085938 86.597656 113.839844 80.226562 113.839844 C 71.554688 113.839844 66.964844 109.273438 66.964844 100.644531 C 66.964844 87.183594 72.601562 80.355469 83.707031 80.355469 C 95.203125 80.355469 102.773438 89.277344 110.792969 98.707031 C 119.488281 108.949219 129.335938 120.535156 145.449219 120.535156 C 161.394531 120.535156 183.183594 102.304688 208.398438 81.179688 C 238.875 55.691406 273.390625 26.785156 302.308594 26.785156 C 333.632812 26.785156 348.214844 41.917969 348.214844 74.40625 C 348.214844 98.484375 327.601562 113.839844 313.398438 113.839844 C 286.167969 113.839844 274.554688 103.152344 274.554688 78.09375 C 274.554688 68.101562 283.488281 56.917969 295.453125 56.917969 C 300.765625 56.917969 306.257812 60.046875 309.132812 64.703125 C 311.03125 67.773438 312.601562 72.8125 309.316406 79.375 C 308.492188 81.039062 309.171875 83.039062 310.820312 83.875 C 312.46875 84.699219 314.484375 84.019531 315.308594 82.371094 C 318.945312 75.085938 318.773438 67.566406 314.824219 61.183594 C 310.703125 54.527344 303.105469 50.222656 295.453125 50.222656 C 280.753906 50.222656 267.855469 63.25 267.855469 78.09375 C 267.855469 107.050781 282.335938 120.535156 313.398438 120.535156 C 330.320312 120.535156 354.910156 102.566406 354.910156 74.40625 C 354.910156 38.375 337.214844 20.089844 302.308594 20.089844 C 270.957031 20.089844 235.449219 49.816406 204.109375 76.054688 C 180.894531 95.488281 158.960938 113.839844 145.449219 113.839844 C 132.4375 113.839844 124.40625 104.382812 115.894531 94.378906 C 107.246094 84.1875 98.289062 73.660156 83.707031 73.660156 C 68.808594 73.660156 60.269531 83.496094 60.269531 100.644531 C 60.269531 112.910156 67.917969 120.535156 80.226562 120.535156 " fill-opacity="1" fill-rule="nonzero"/><path fill="#480e30" d="M 229.851562 120.535156 C 240.0625 120.535156 247.769531 113.5 247.769531 104.148438 C 247.769531 94.71875 241.164062 90.21875 234.609375 89.945312 C 227.363281 89.617188 221.503906 94.039062 220.996094 100.171875 C 220.839844 102.015625 222.210938 103.625 224.042969 103.78125 C 225.898438 103.9375 227.507812 102.578125 227.664062 100.722656 C 227.902344 98.039062 231.289062 96.484375 234.335938 96.628906 C 236.363281 96.71875 241.070312 97.621094 241.070312 104.148438 C 241.070312 110.804688 235.25 113.839844 229.851562 113.839844 C 211.851562 113.839844 210.9375 94.3125 210.9375 90.402344 C 210.9375 82.761719 214.089844 73.660156 229.089844 73.660156 C 245.621094 73.660156 254.832031 84.164062 264.574219 95.292969 C 269.046875 100.40625 273.675781 105.703125 279.050781 109.835938 C 280.515625 110.976562 282.625 110.699219 283.75 109.234375 C 284.886719 107.769531 284.609375 105.664062 283.144531 104.539062 C 278.28125 100.800781 274.070312 95.972656 269.609375 90.886719 C 259.316406 79.128906 248.671875 66.964844 229.089844 66.964844 C 213.539062 66.964844 204.242188 75.726562 204.242188 90.402344 C 204.242188 93.488281 204.960938 120.535156 229.851562 120.535156 " fill-opacity="1" fill-rule="nonzero"/><g clip-path="url(#8bd04523fe)"><path fill="#572545" d="M 210.472656 315.972656 L 187.132812 315.972656 C 185.777344 315.972656 184.664062 314.894531 184.628906 313.539062 L 184.226562 299.289062 C 182.203125 297.003906 172.648438 286.980469 161.71875 287.441406 C 155.042969 287.722656 149.035156 292.046875 143.847656 300.296875 L 144.648438 313.3125 C 144.691406 314.003906 144.445312 314.679688 143.972656 315.183594 C 143.5 315.6875 142.839844 315.972656 142.148438 315.972656 L 118.382812 315.972656 C 117 315.972656 115.878906 314.851562 115.878906 313.46875 L 115.878906 299.65625 C 115.878906 298.929688 116.191406 298.242188 116.742188 297.765625 L 137.914062 279.390625 L 137.542969 266.402344 C 136.941406 265.597656 135.472656 263.929688 133.285156 263.417969 C 131.285156 262.953125 129.015625 263.535156 126.542969 265.152344 C 125.148438 266.066406 123.414062 266.449219 121.488281 266.449219 C 113.796875 266.449219 102.992188 260.320312 97.980469 257.191406 C 93.03125 254.101562 88.460938 250.683594 85.105469 247.566406 C 79.523438 242.378906 79.136719 239.71875 79.332031 238.167969 C 79.539062 236.523438 80.65625 235.261719 82.398438 234.707031 C 90.652344 232.074219 118.453125 233.460938 127.4375 233.992188 L 127.335938 231.226562 C 127.3125 230.546875 127.566406 229.886719 128.039062 229.394531 C 128.511719 228.90625 129.160156 228.628906 129.839844 228.628906 L 236.785156 228.628906 C 238.167969 228.628906 239.289062 229.75 239.289062 231.136719 L 239.289062 240.945312 C 239.394531 241.980469 238.84375 243.011719 237.871094 243.480469 C 237.492188 243.664062 237.082031 243.742188 236.675781 243.726562 C 232.789062 244.199219 199.667969 250.871094 190.996094 262.660156 C 189.300781 264.96875 188.734375 267.242188 189.261719 269.621094 C 190.117188 273.453125 190.625 276.726562 190.847656 279.84375 C 198.585938 287.734375 207.957031 296.363281 210.265625 297.160156 C 211.519531 297.269531 212.511719 298.300781 212.550781 299.582031 L 212.976562 313.390625 C 212.996094 314.070312 212.742188 314.726562 212.269531 315.210938 C 211.800781 315.699219 211.148438 315.972656 210.472656 315.972656 Z M 189.566406 310.960938 L 207.890625 310.960938 L 207.59375 301.433594 C 205.652344 300.394531 202.414062 297.917969 196.238281 292.121094 C 191.269531 287.453125 186.65625 282.726562 186.609375 282.679688 C 186.1875 282.246094 185.9375 281.675781 185.902344 281.070312 L 185.898438 280.957031 C 185.726562 277.863281 185.242188 274.609375 184.371094 270.707031 C 181.980469 259.976562 193.144531 250.519531 216.664062 243.359375 C 222.25 241.65625 227.238281 240.484375 230.441406 239.804688 C 231.816406 239.511719 233.15625 239.246094 234.277344 239.042969 L 234.277344 233.640625 L 132.4375 233.640625 L 132.542969 236.578125 C 132.570312 237.285156 132.292969 237.972656 131.785156 238.464844 C 131.273438 238.960938 130.582031 239.214844 129.871094 239.167969 C 119.832031 238.484375 92.695312 237.226562 84.542969 239.300781 C 85.175781 240.5 87.203125 243.101562 92.347656 247.148438 C 97.519531 251.214844 104 255.242188 109.683594 257.914062 C 117.738281 261.699219 122.257812 261.96875 123.800781 260.957031 C 127.496094 258.542969 131.09375 257.734375 134.503906 258.558594 C 139.535156 259.773438 142.097656 264.179688 142.203125 264.367188 C 142.40625 264.722656 142.519531 265.125 142.53125 265.535156 L 142.957031 280.433594 C 142.976562 281.183594 142.660156 281.902344 142.09375 282.398438 L 120.890625 300.800781 L 120.890625 310.960938 L 139.484375 310.960938 L 138.800781 299.808594 C 138.769531 299.300781 138.894531 298.792969 139.160156 298.355469 C 149.777344 280.890625 162.285156 280.882812 170.90625 283.953125 C 176.253906 285.859375 180.777344 289.203125 183.628906 291.671875 C 185.289062 293.113281 186.539062 294.386719 187.300781 295.199219 C 188.582031 296.578125 189.273438 297.320312 189.21875 298.460938 Z M 210.332031 297.179688 Z M 210.046875 297.152344 C 210.050781 297.152344 210.050781 297.152344 210.054688 297.152344 C 210.050781 297.152344 210.050781 297.152344 210.046875 297.152344 Z M 210.046875 297.152344 " fill-opacity="1" fill-rule="nonzero"/></g><path fill="#572545" d="M 130.042969 263.601562 C 128.65625 263.601562 127.535156 262.480469 127.535156 261.097656 L 127.535156 236.625 C 127.535156 235.242188 128.65625 234.117188 130.042969 234.117188 C 131.425781 234.117188 132.546875 235.242188 132.546875 236.625 L 132.546875 261.097656 C 132.546875 262.480469 131.425781 263.601562 130.042969 263.601562 Z M 130.042969 263.601562 " fill-opacity="1" fill-rule="nonzero"/><path fill="#572545" d="M 141.300781 302.160156 L 118.382812 302.160156 C 117 302.160156 115.878906 301.039062 115.878906 299.65625 C 115.878906 298.273438 117 297.152344 118.382812 297.152344 L 141.300781 297.152344 C 142.683594 297.152344 143.804688 298.273438 143.804688 299.65625 C 143.804688 301.039062 142.683594 302.160156 141.300781 302.160156 Z M 141.300781 302.160156 " fill-opacity="1" fill-rule="nonzero"/><path fill="#572545" d="M 210.046875 302.160156 L 186.707031 302.152344 C 185.324219 302.152344 184.203125 301.03125 184.203125 299.648438 C 184.203125 298.261719 185.324219 297.140625 186.707031 297.140625 L 210.050781 297.152344 C 211.433594 297.152344 212.554688 298.273438 212.554688 299.65625 C 212.554688 301.039062 211.429688 302.160156 210.046875 302.160156 Z M 210.046875 302.160156 " fill-opacity="1" fill-rule="nonzero"/><path fill="#572545" d="M 187.128906 315.972656 C 186.644531 315.972656 186.152344 315.832031 185.71875 315.535156 C 177.546875 309.964844 168.007812 308.253906 157.355469 310.460938 C 149.246094 312.136719 143.503906 315.574219 143.449219 315.609375 C 142.265625 316.324219 140.726562 315.949219 140.007812 314.765625 C 139.289062 313.585938 139.664062 312.046875 140.84375 311.328125 C 141.101562 311.167969 147.253906 307.464844 156.167969 305.589844 C 168.09375 303.078125 179.289062 305.085938 188.542969 311.398438 C 189.6875 312.175781 189.980469 313.734375 189.203125 314.878906 C 188.714844 315.589844 187.929688 315.972656 187.128906 315.972656 Z M 187.128906 315.972656 " fill-opacity="1" fill-rule="nonzero"/></svg>