<svg xmlns="http://www.w3.org/2000/svg" xmlns:xlink="http://www.w3.org/1999/xlink" width="500" zoomAndPan="magnify" viewBox="0 0 375 374.999991" height="500" preserveAspectRatio="xMidYMid meet" version="1.0"><defs><clipPath id="d580a8eb92"><path d="M 12 228 L 375 228 L 375 346.875 L 12 346.875 Z M 12 228 " clip-rule="nonzero"/></clipPath><clipPath id="5767a799db"><path d="M 0 28.125 L 233 28.125 L 233 331 L 0 331 Z M 0 28.125 " clip-rule="nonzero"/></clipPath></defs><g clip-path="url(#d580a8eb92)"><path fill="#480e30" d="M 362.867188 236.46875 C 358.46875 234.019531 353.710938 232.085938 348.714844 230.777344 C 346.21875 230.132812 343.667969 229.636719 341.082031 229.296875 L 340.839844 229.261719 L 340.71875 229.246094 L 340.59375 229.234375 L 340.105469 229.179688 C 339.785156 229.140625 339.457031 229.105469 339.132812 229.070312 C 338.804688 229.039062 338.484375 229.011719 338.15625 228.984375 L 337.667969 228.941406 C 337.585938 228.933594 337.503906 228.925781 337.417969 228.921875 L 337.175781 228.90625 C 336.847656 228.882812 336.523438 228.863281 336.195312 228.84375 C 336.03125 228.835938 335.867188 228.820312 335.703125 228.816406 L 335.207031 228.796875 C 334.878906 228.785156 334.550781 228.773438 334.222656 228.757812 C 333.894531 228.75 333.5625 228.746094 333.234375 228.742188 C 331.917969 228.71875 330.59375 228.75 329.269531 228.796875 C 328.9375 228.8125 328.605469 228.828125 328.273438 228.847656 L 327.777344 228.875 L 327.527344 228.886719 L 327.28125 228.90625 C 326.949219 228.929688 326.621094 228.957031 326.285156 228.980469 C 326.121094 228.992188 325.953125 229.003906 325.789062 229.019531 L 325.292969 229.066406 C 324.957031 229.097656 324.625 229.128906 324.296875 229.160156 C 323.964844 229.195312 323.636719 229.238281 323.300781 229.277344 L 322.804688 229.332031 L 322.554688 229.363281 L 322.308594 229.398438 C 321.976562 229.441406 321.644531 229.484375 321.3125 229.53125 C 321.148438 229.554688 320.980469 229.574219 320.816406 229.601562 L 320.320312 229.679688 C 319.988281 229.730469 319.65625 229.78125 319.324219 229.835938 C 318.992188 229.886719 318.664062 229.949219 318.332031 230.007812 L 317.835938 230.09375 C 317.671875 230.125 317.503906 230.152344 317.34375 230.183594 C 314.699219 230.6875 312.0625 231.300781 309.445312 232.015625 L 309.199219 232.082031 L 308.957031 232.148438 L 308.464844 232.289062 C 308.140625 232.382812 307.8125 232.476562 307.484375 232.570312 C 307.160156 232.667969 306.832031 232.765625 306.507812 232.863281 C 306.179688 232.964844 305.855469 233.0625 305.527344 233.167969 C 304.878906 233.375 304.230469 233.578125 303.582031 233.796875 C 303.261719 233.90625 302.933594 234.011719 302.609375 234.121094 C 302.289062 234.234375 301.964844 234.347656 301.640625 234.460938 C 300.347656 234.910156 299.0625 235.394531 297.777344 235.886719 C 297.457031 236.007812 297.140625 236.136719 296.820312 236.265625 C 296.5 236.394531 296.179688 236.515625 295.863281 236.648438 C 295.542969 236.777344 295.222656 236.910156 294.902344 237.042969 L 294.425781 237.238281 L 293.949219 237.441406 C 291.40625 238.515625 288.882812 239.667969 286.378906 240.882812 C 283.875 242.105469 281.390625 243.390625 278.929688 244.738281 L 278.007812 245.246094 C 277.699219 245.414062 277.394531 245.585938 277.085938 245.761719 C 276.777344 245.925781 276.476562 246.105469 276.167969 246.277344 C 275.863281 246.453125 275.558594 246.625 275.25 246.800781 C 274.945312 246.976562 274.636719 247.15625 274.335938 247.332031 C 274.03125 247.507812 273.726562 247.683594 273.425781 247.863281 C 272.816406 248.222656 272.210938 248.582031 271.601562 248.941406 C 271.296875 249.121094 270.996094 249.304688 270.691406 249.488281 C 270.390625 249.667969 270.089844 249.851562 269.785156 250.035156 C 269.484375 250.21875 269.179688 250.398438 268.875 250.582031 C 268.574219 250.765625 268.273438 250.953125 267.972656 251.136719 C 267.367188 251.511719 266.761719 251.878906 266.160156 252.253906 C 265.554688 252.628906 264.957031 253.003906 264.351562 253.382812 L 263.898438 253.664062 L 263.449219 253.953125 C 263.148438 254.144531 262.84375 254.332031 262.546875 254.523438 C 262.242188 254.714844 261.945312 254.90625 261.644531 255.097656 C 261.34375 255.289062 261.042969 255.484375 260.742188 255.675781 C 260.140625 256.0625 259.542969 256.449219 258.941406 256.835938 C 258.339844 257.226562 257.746094 257.617188 257.144531 258.011719 C 247.554688 264.292969 238.054688 270.992188 228.488281 277.835938 C 218.921875 284.679688 209.28125 291.671875 199.390625 298.523438 C 196.917969 300.230469 194.429688 301.9375 191.925781 303.625 C 189.414062 305.3125 186.890625 306.988281 184.34375 308.640625 C 183.707031 309.058594 183.066406 309.46875 182.425781 309.878906 C 181.789062 310.289062 181.148438 310.703125 180.503906 311.105469 C 179.863281 311.515625 179.21875 311.921875 178.574219 312.328125 C 177.929688 312.734375 177.28125 313.136719 176.632812 313.539062 C 174.039062 315.144531 171.425781 316.730469 168.78125 318.277344 C 166.136719 319.828125 163.464844 321.34375 160.765625 322.824219 C 158.066406 324.296875 155.335938 325.730469 152.578125 327.121094 C 149.820312 328.519531 147.027344 329.851562 144.207031 331.140625 C 142.796875 331.789062 141.375 332.40625 139.949219 333.027344 C 139.234375 333.332031 138.519531 333.632812 137.804688 333.9375 C 137.445312 334.089844 137.085938 334.234375 136.726562 334.382812 C 136.363281 334.53125 136.003906 334.675781 135.644531 334.820312 C 135.332031 334.949219 135.019531 335.074219 134.707031 335.203125 C 134.390625 335.324219 134.078125 335.449219 133.765625 335.570312 C 133.449219 335.695312 133.136719 335.816406 132.820312 335.9375 L 132.351562 336.121094 C 132.195312 336.183594 132.035156 336.246094 131.878906 336.304688 C 130.617188 336.773438 129.359375 337.253906 128.089844 337.695312 C 127.773438 337.808594 127.457031 337.921875 127.136719 338.035156 L 126.664062 338.203125 L 126.1875 338.367188 C 125.550781 338.582031 124.914062 338.796875 124.28125 339.011719 C 124.121094 339.066406 123.964844 339.121094 123.804688 339.171875 L 123.324219 339.324219 C 123.003906 339.425781 122.683594 339.53125 122.367188 339.632812 C 122.046875 339.734375 121.730469 339.835938 121.410156 339.9375 L 121.171875 340.015625 L 120.929688 340.089844 L 120.449219 340.234375 C 119.808594 340.429688 119.167969 340.621094 118.527344 340.816406 C 118.371094 340.867188 118.207031 340.910156 118.046875 340.957031 L 117.566406 341.09375 C 117.242188 341.183594 116.921875 341.277344 116.601562 341.367188 C 116.28125 341.460938 115.960938 341.550781 115.636719 341.640625 C 115.316406 341.726562 114.992188 341.816406 114.671875 341.902344 C 114.027344 342.074219 113.382812 342.242188 112.738281 342.414062 C 110.167969 343.074219 107.597656 343.640625 105.035156 343.941406 C 103.753906 344.089844 102.472656 344.167969 101.203125 344.160156 C 99.9375 344.144531 98.679688 344.042969 97.449219 343.824219 C 97.296875 343.796875 97.140625 343.773438 96.988281 343.738281 L 96.757812 343.695312 L 96.644531 343.667969 L 96.535156 343.644531 C 96.242188 343.578125 95.953125 343.5 95.667969 343.414062 C 95.378906 343.324219 95.097656 343.222656 94.820312 343.117188 C 94.542969 343.007812 94.265625 342.890625 94 342.761719 C 93.734375 342.632812 93.46875 342.5 93.21875 342.351562 L 93.125 342.296875 L 92.84375 342.121094 C 92.726562 342.042969 92.601562 341.960938 92.488281 341.878906 C 92.429688 341.832031 92.371094 341.792969 92.316406 341.75 L 92.144531 341.621094 C 92.089844 341.578125 92.039062 341.527344 91.980469 341.484375 L 91.902344 341.417969 C 91.875 341.394531 91.847656 341.371094 91.824219 341.347656 C 91.609375 341.160156 91.417969 340.964844 91.238281 340.761719 C 90.882812 340.351562 90.589844 339.910156 90.386719 339.449219 C 90.28125 339.214844 90.210938 338.976562 90.148438 338.738281 C 90.085938 338.496094 90.0625 338.246094 90.042969 337.996094 C 90.015625 337.5 90.082031 336.988281 90.226562 336.464844 C 90.371094 335.949219 90.59375 335.425781 90.867188 334.910156 C 91.144531 334.390625 91.472656 333.875 91.828125 333.367188 C 92.007812 333.109375 92.195312 332.855469 92.382812 332.597656 C 92.480469 332.472656 92.578125 332.339844 92.675781 332.214844 L 92.964844 331.839844 C 93.359375 331.339844 93.765625 330.847656 94.183594 330.363281 C 94.605469 329.875 95.03125 329.394531 95.46875 328.917969 C 96.34375 327.972656 97.246094 327.042969 98.164062 326.121094 C 99.082031 325.203125 100.015625 324.292969 100.953125 323.390625 C 102.832031 321.578125 104.730469 319.78125 106.601562 317.949219 C 108.472656 316.121094 110.316406 314.257812 112.082031 312.308594 C 112.964844 311.335938 113.824219 310.34375 114.65625 309.320312 C 114.863281 309.0625 115.074219 308.808594 115.273438 308.546875 L 115.578125 308.15625 L 115.878906 307.761719 C 116.082031 307.5 116.273438 307.230469 116.472656 306.964844 C 116.566406 306.832031 116.664062 306.695312 116.757812 306.5625 C 116.855469 306.425781 116.953125 306.292969 117.042969 306.152344 L 117.324219 305.746094 C 117.421875 305.609375 117.507812 305.46875 117.601562 305.328125 C 117.785156 305.054688 117.960938 304.773438 118.140625 304.492188 C 118.488281 303.925781 118.832031 303.351562 119.144531 302.765625 C 119.308594 302.472656 119.460938 302.175781 119.613281 301.875 C 119.6875 301.726562 119.761719 301.574219 119.832031 301.425781 L 119.941406 301.199219 L 120.046875 300.96875 L 120.253906 300.511719 L 120.449219 300.046875 C 120.515625 299.890625 120.578125 299.734375 120.636719 299.574219 L 120.730469 299.339844 C 120.761719 299.261719 120.789062 299.179688 120.816406 299.101562 L 120.984375 298.625 C 121.015625 298.546875 121.039062 298.464844 121.066406 298.382812 L 121.140625 298.140625 L 121.21875 297.898438 C 121.242188 297.816406 121.265625 297.738281 121.289062 297.65625 C 121.332031 297.488281 121.378906 297.328125 121.421875 297.164062 C 121.59375 296.503906 121.730469 295.835938 121.835938 295.160156 C 121.933594 294.484375 122 293.800781 122.019531 293.113281 C 122.035156 292.421875 122.003906 291.726562 121.921875 291.03125 C 121.757812 289.648438 121.355469 288.273438 120.726562 287.011719 C 120.410156 286.386719 120.042969 285.785156 119.625 285.226562 C 119.210938 284.664062 118.742188 284.144531 118.25 283.660156 C 117.253906 282.699219 116.132812 281.90625 114.957031 281.25 C 113.777344 280.601562 112.539062 280.09375 111.28125 279.691406 C 110.648438 279.492188 110.011719 279.320312 109.371094 279.175781 C 109.054688 279.097656 108.730469 279.035156 108.410156 278.96875 L 107.929688 278.882812 C 107.765625 278.851562 107.605469 278.832031 107.445312 278.804688 C 106.796875 278.707031 106.148438 278.628906 105.5 278.574219 C 104.851562 278.523438 104.203125 278.496094 103.554688 278.484375 C 102.90625 278.46875 102.257812 278.484375 101.609375 278.515625 C 100.960938 278.546875 100.316406 278.605469 99.671875 278.679688 C 98.386719 278.839844 97.109375 279.078125 95.851562 279.433594 L 95.382812 279.574219 C 95.226562 279.621094 95.070312 279.671875 94.917969 279.722656 C 94.835938 279.75 94.765625 279.777344 94.691406 279.800781 L 94.464844 279.878906 L 94.019531 280.035156 L 93.792969 280.113281 L 93.574219 280.195312 L 93.128906 280.363281 C 92.980469 280.417969 92.832031 280.46875 92.6875 280.527344 L 92.246094 280.699219 C 91.074219 281.15625 89.917969 281.644531 88.777344 282.167969 C 87.636719 282.6875 86.515625 283.234375 85.40625 283.796875 C 85.128906 283.941406 84.851562 284.082031 84.578125 284.226562 C 84.300781 284.375 84.027344 284.519531 83.753906 284.664062 C 83.480469 284.8125 83.207031 284.957031 82.933594 285.105469 C 82.664062 285.253906 82.394531 285.410156 82.121094 285.558594 C 81.042969 286.160156 79.972656 286.78125 78.914062 287.410156 C 77.859375 288.039062 76.808594 288.679688 75.773438 289.324219 C 73.691406 290.617188 71.644531 291.9375 69.605469 293.246094 C 68.585938 293.898438 67.566406 294.550781 66.550781 295.195312 C 66.042969 295.515625 65.53125 295.839844 65.023438 296.160156 C 64.511719 296.476562 64.003906 296.796875 63.492188 297.113281 C 62.472656 297.75 61.453125 298.390625 60.433594 299.027344 C 59.421875 299.671875 58.410156 300.316406 57.402344 300.957031 C 53.378906 303.542969 49.417969 306.164062 45.523438 308.816406 C 44.554688 309.480469 43.582031 310.140625 42.617188 310.8125 C 42.136719 311.144531 41.65625 311.484375 41.175781 311.816406 C 40.695312 312.148438 40.214844 312.480469 39.738281 312.820312 C 38.785156 313.496094 37.832031 314.171875 36.882812 314.839844 C 35.9375 315.519531 34.996094 316.199219 34.054688 316.875 C 26.550781 322.324219 19.320312 327.882812 12.398438 333.566406 C 27.917969 321.433594 44.933594 309.75 63.257812 298.722656 C 63.832031 298.378906 64.402344 298.03125 64.980469 297.6875 C 65.554688 297.34375 66.128906 296.992188 66.707031 296.644531 C 67.855469 295.945312 69.003906 295.234375 70.152344 294.523438 C 72.449219 293.101562 74.75 291.667969 77.082031 290.277344 C 79.414062 288.882812 81.78125 287.527344 84.199219 286.261719 C 86.621094 285.003906 89.09375 283.828125 91.640625 282.8125 C 92.277344 282.558594 92.917969 282.316406 93.5625 282.078125 L 94.046875 281.910156 C 94.207031 281.851562 94.371094 281.789062 94.53125 281.738281 L 95.019531 281.574219 L 95.265625 281.492188 C 95.34375 281.464844 95.425781 281.4375 95.503906 281.414062 C 96.777344 281.011719 98.101562 280.738281 99.445312 280.570312 C 100.789062 280.402344 102.148438 280.339844 103.507812 280.378906 C 104.871094 280.417969 106.230469 280.554688 107.570312 280.800781 C 108.90625 281.042969 110.226562 281.398438 111.488281 281.875 C 112.753906 282.355469 113.964844 282.960938 115.0625 283.714844 C 116.15625 284.46875 117.132812 285.375 117.90625 286.425781 C 118.292969 286.949219 118.625 287.511719 118.898438 288.097656 C 119.175781 288.6875 119.386719 289.300781 119.542969 289.933594 C 119.699219 290.570312 119.792969 291.21875 119.828125 291.878906 C 119.867188 292.539062 119.847656 293.203125 119.785156 293.871094 C 119.722656 294.539062 119.617188 295.207031 119.460938 295.867188 C 119.3125 296.53125 119.121094 297.183594 118.902344 297.832031 C 118.675781 298.480469 118.414062 299.117188 118.132812 299.75 L 117.914062 300.21875 L 117.679688 300.683594 C 117.605469 300.84375 117.519531 300.992188 117.441406 301.148438 L 117.320312 301.378906 C 117.277344 301.457031 117.234375 301.53125 117.191406 301.605469 C 116.859375 302.21875 116.492188 302.816406 116.113281 303.410156 C 115.738281 304.003906 115.335938 304.582031 114.921875 305.160156 C 113.265625 307.453125 111.378906 309.617188 109.390625 311.710938 C 107.402344 313.804688 105.308594 315.832031 103.179688 317.847656 C 101.054688 319.867188 98.890625 321.875 96.761719 323.964844 C 96.230469 324.488281 95.699219 325.011719 95.175781 325.550781 C 94.648438 326.082031 94.128906 326.628906 93.613281 327.179688 C 93.097656 327.730469 92.589844 328.292969 92.09375 328.867188 C 91.59375 329.445312 91.105469 330.035156 90.632812 330.644531 C 90.167969 331.246094 89.707031 331.867188 89.269531 332.535156 C 88.832031 333.203125 88.421875 333.914062 88.09375 334.699219 C 87.925781 335.085938 87.785156 335.496094 87.671875 335.921875 C 87.613281 336.132812 87.570312 336.351562 87.527344 336.574219 C 87.492188 336.792969 87.460938 337.015625 87.445312 337.246094 C 87.425781 337.472656 87.421875 337.699219 87.421875 337.929688 C 87.425781 338.042969 87.429688 338.15625 87.4375 338.273438 L 87.46875 338.617188 C 87.527344 339.074219 87.628906 339.527344 87.773438 339.960938 L 87.832031 340.125 C 87.851562 340.179688 87.867188 340.234375 87.890625 340.285156 L 88.023438 340.605469 L 88.171875 340.910156 C 88.222656 341.015625 88.28125 341.109375 88.335938 341.210938 C 88.558594 341.601562 88.816406 341.96875 89.09375 342.3125 C 89.375 342.652344 89.679688 342.964844 89.996094 343.257812 C 90.3125 343.546875 90.644531 343.816406 90.992188 344.0625 C 91.335938 344.308594 91.6875 344.535156 92.050781 344.742188 C 92.414062 344.945312 92.785156 345.132812 93.160156 345.308594 C 93.914062 345.644531 94.691406 345.925781 95.488281 346.132812 C 95.6875 346.1875 95.890625 346.238281 96.089844 346.28125 C 96.285156 346.324219 96.480469 346.367188 96.675781 346.40625 C 96.871094 346.4375 97.070312 346.480469 97.265625 346.511719 L 97.707031 346.582031 L 97.855469 346.601562 C 98.644531 346.714844 99.441406 346.785156 100.234375 346.824219 C 101.816406 346.898438 103.398438 346.832031 104.960938 346.671875 C 106.519531 346.511719 108.0625 346.257812 109.582031 345.949219 C 110.339844 345.796875 111.097656 345.628906 111.847656 345.453125 C 112.601562 345.273438 113.351562 345.089844 114.089844 344.890625 C 114.832031 344.695312 115.574219 344.5 116.316406 344.304688 C 117.058594 344.097656 117.796875 343.886719 118.539062 343.679688 L 119.09375 343.523438 C 119.28125 343.46875 119.464844 343.414062 119.648438 343.355469 C 120.015625 343.246094 120.386719 343.136719 120.753906 343.027344 C 121.125 342.914062 121.492188 342.804688 121.863281 342.691406 C 122.230469 342.578125 122.597656 342.457031 122.964844 342.34375 C 123.332031 342.226562 123.699219 342.109375 124.066406 341.992188 C 124.433594 341.875 124.804688 341.761719 125.167969 341.632812 C 125.898438 341.390625 126.632812 341.140625 127.363281 340.894531 C 127.546875 340.835938 127.730469 340.769531 127.914062 340.707031 L 128.460938 340.511719 C 128.824219 340.382812 129.1875 340.253906 129.554688 340.125 C 130.285156 339.871094 131.007812 339.597656 131.734375 339.328125 C 132.097656 339.191406 132.460938 339.058594 132.824219 338.921875 C 133.007812 338.855469 133.1875 338.785156 133.367188 338.714844 L 133.910156 338.503906 C 134.273438 338.367188 134.632812 338.222656 134.996094 338.085938 L 135.539062 337.871094 L 136.078125 337.660156 C 136.796875 337.367188 137.519531 337.074219 138.238281 336.78125 L 138.507812 336.671875 L 139.316406 336.332031 C 139.671875 336.183594 140.03125 336.03125 140.390625 335.878906 L 141.195312 335.539062 L 141.464844 335.421875 C 141.820312 335.265625 142.175781 335.105469 142.535156 334.953125 C 142.890625 334.792969 143.246094 334.640625 143.605469 334.480469 L 143.871094 334.367188 L 144.136719 334.246094 L 144.671875 334.003906 C 145.027344 333.839844 145.382812 333.679688 145.734375 333.519531 L 146.269531 333.277344 L 146.535156 333.15625 L 146.800781 333.03125 C 147.507812 332.699219 148.210938 332.367188 148.917969 332.035156 C 151.738281 330.6875 154.539062 329.289062 157.320312 327.839844 C 158.015625 327.472656 158.710938 327.105469 159.402344 326.738281 C 159.75 326.554688 160.09375 326.367188 160.441406 326.179688 C 160.785156 325.992188 161.128906 325.804688 161.476562 325.617188 C 161.820312 325.429688 162.167969 325.246094 162.511719 325.050781 C 162.855469 324.863281 163.199219 324.671875 163.542969 324.480469 C 164.230469 324.097656 164.917969 323.71875 165.601562 323.328125 C 166.195312 322.988281 166.789062 322.652344 167.382812 322.316406 C 167.972656 321.96875 168.5625 321.628906 169.148438 321.289062 L 170.035156 320.773438 L 170.914062 320.253906 C 171.496094 319.902344 172.082031 319.554688 172.667969 319.210938 C 173.832031 318.503906 174.996094 317.804688 176.148438 317.089844 C 176.726562 316.734375 177.304688 316.378906 177.878906 316.019531 C 178.453125 315.660156 179.027344 315.300781 179.601562 314.941406 C 180.175781 314.585938 180.746094 314.21875 181.316406 313.855469 L 182.171875 313.3125 L 182.601562 313.039062 L 183.023438 312.761719 C 183.59375 312.398438 184.160156 312.027344 184.726562 311.664062 C 185.011719 311.480469 185.292969 311.296875 185.574219 311.113281 C 185.855469 310.925781 186.136719 310.742188 186.417969 310.554688 C 187.550781 309.820312 188.667969 309.070312 189.789062 308.328125 C 190.351562 307.957031 190.902344 307.578125 191.464844 307.207031 C 192.019531 306.828125 192.578125 306.457031 193.132812 306.078125 C 193.6875 305.699219 194.242188 305.324219 194.796875 304.945312 C 195.347656 304.566406 195.898438 304.1875 196.449219 303.808594 C 197.554688 303.054688 198.652344 302.289062 199.75 301.527344 C 201.9375 300 204.121094 298.46875 206.285156 296.925781 C 210.617188 293.851562 214.902344 290.75 219.160156 287.660156 C 227.675781 281.476562 236.070312 275.316406 244.46875 269.371094 C 252.867188 263.417969 261.277344 257.683594 269.796875 252.355469 C 270.328125 252.023438 270.863281 251.691406 271.394531 251.359375 C 271.660156 251.195312 271.925781 251.03125 272.195312 250.867188 C 272.460938 250.703125 272.726562 250.542969 272.996094 250.375 C 273.527344 250.054688 274.066406 249.726562 274.597656 249.402344 C 275.132812 249.078125 275.667969 248.761719 276.203125 248.441406 C 278.347656 247.171875 280.507812 245.949219 282.6875 244.773438 C 287.039062 242.421875 291.460938 240.257812 295.949219 238.339844 C 300.4375 236.421875 304.992188 234.75 309.609375 233.394531 C 314.222656 232.042969 318.898438 231.011719 323.59375 230.382812 C 325.941406 230.070312 328.292969 229.859375 330.640625 229.761719 L 330.863281 229.75 L 331.082031 229.742188 L 331.519531 229.734375 C 331.816406 229.726562 332.109375 229.714844 332.402344 229.710938 C 332.691406 229.703125 332.988281 229.707031 333.28125 229.703125 C 333.574219 229.703125 333.867188 229.703125 334.15625 229.703125 C 334.453125 229.707031 334.742188 229.710938 335.035156 229.714844 L 335.472656 229.726562 C 335.621094 229.730469 335.765625 229.730469 335.910156 229.738281 C 336.207031 229.75 336.496094 229.765625 336.789062 229.773438 C 337.078125 229.789062 337.371094 229.800781 337.660156 229.820312 C 342.316406 230.097656 346.90625 230.875 351.320312 232.15625 C 353.53125 232.796875 355.691406 233.558594 357.792969 234.445312 C 359.898438 235.328125 361.941406 236.328125 363.921875 237.429688 C 367.878906 239.636719 371.558594 242.261719 374.953125 245.160156 C 371.300781 241.882812 367.269531 238.917969 362.867188 236.46875 " fill-opacity="1" fill-rule="nonzero"/></g><g clip-path="url(#5767a799db)"><path fill="#480e30" d="M 164.355469 133.601562 C 164.355469 133.601562 139.328125 150.5 115.527344 133.898438 C 115.527344 133.898438 144.824219 135.617188 164.355469 133.601562 Z M 139.652344 170.753906 C 139.074219 171.035156 138.230469 171.4375 137.160156 171.910156 C 136.089844 172.375 134.796875 172.914062 133.320312 173.46875 C 132.949219 173.605469 132.570312 173.75 132.183594 173.890625 C 131.796875 174.039062 131.398438 174.183594 130.992188 174.328125 C 130.179688 174.617188 129.324219 174.910156 128.4375 175.191406 C 126.65625 175.753906 124.742188 176.285156 122.734375 176.734375 C 122.480469 176.789062 122.226562 176.839844 121.976562 176.894531 C 121.722656 176.953125 121.46875 177.003906 121.214844 177.058594 C 120.707031 177.164062 120.191406 177.261719 119.675781 177.355469 C 118.636719 177.539062 117.585938 177.691406 116.515625 177.8125 C 114.382812 178.050781 112.199219 178.148438 110.015625 178.042969 C 107.828125 177.9375 105.636719 177.625 103.507812 177.054688 C 103.894531 176.964844 104.277344 176.871094 104.667969 176.785156 L 105.839844 176.527344 L 108.171875 176.019531 C 109.730469 175.6875 111.28125 175.359375 112.828125 175.035156 C 114.375 174.714844 115.914062 174.398438 117.460938 174.09375 C 119.011719 173.796875 120.5625 173.507812 122.109375 173.226562 C 123.65625 172.945312 125.195312 172.671875 126.734375 172.402344 L 129.035156 172.007812 C 129.414062 171.9375 129.804688 171.878906 130.191406 171.820312 L 131.347656 171.640625 C 134.433594 171.164062 137.496094 170.714844 140.539062 170.296875 C 140.539062 170.296875 140.230469 170.46875 139.652344 170.753906 Z M 12.890625 316.316406 C 12.375 317.113281 11.304688 317.546875 10.273438 317.367188 C 8.574219 317.070312 7.710938 315.425781 8.5625 314.105469 C 9.082031 313.304688 10.152344 312.878906 11.179688 313.054688 C 12.878906 313.351562 13.742188 314.996094 12.890625 316.316406 Z M 232.21875 36.433594 C 232.179688 36.207031 232.066406 35.976562 231.894531 35.761719 C 231.71875 35.550781 231.480469 35.355469 231.179688 35.199219 C 229.386719 34.28125 227.515625 33.472656 225.589844 32.761719 L 225.226562 32.625 C 225.105469 32.578125 224.972656 32.535156 224.847656 32.496094 L 224.085938 32.238281 L 223.320312 31.992188 C 223.1875 31.949219 223.0625 31.910156 222.9375 31.871094 L 222.5625 31.757812 C 222.058594 31.601562 221.554688 31.453125 221.042969 31.308594 C 220.542969 31.167969 220.042969 31.035156 219.539062 30.898438 C 215.527344 29.847656 211.539062 29.136719 207.558594 28.707031 C 203.585938 28.28125 199.625 28.136719 195.691406 28.222656 C 194.71875 28.25 193.730469 28.28125 192.746094 28.328125 C 191.78125 28.390625 190.808594 28.457031 189.832031 28.535156 C 188.84375 28.601562 187.898438 28.714844 186.929688 28.820312 L 185.480469 28.988281 L 184.753906 29.078125 L 184.039062 29.179688 C 184.039062 29.179688 183.628906 29.222656 182.851562 29.355469 C 182.464844 29.425781 181.984375 29.515625 181.414062 29.632812 C 181.132812 29.695312 180.824219 29.757812 180.5 29.835938 C 180.179688 29.914062 179.839844 30.003906 179.480469 30.101562 C 178.050781 30.496094 176.269531 31.023438 174.320312 31.8125 C 173.828125 32.003906 173.320312 32.210938 172.796875 32.429688 C 172.535156 32.542969 172.269531 32.65625 172.003906 32.769531 C 171.742188 32.894531 171.476562 33.019531 171.207031 33.144531 C 170.128906 33.65625 169 34.230469 167.820312 34.863281 C 166.675781 35.511719 165.488281 36.226562 164.265625 37.011719 C 163.644531 37.398438 163.050781 37.824219 162.4375 38.257812 C 161.828125 38.691406 161.210938 39.148438 160.589844 39.617188 C 160.277344 39.855469 159.964844 40.09375 159.652344 40.335938 C 159.34375 40.585938 159.039062 40.839844 158.730469 41.101562 C 158.117188 41.617188 157.5 42.15625 156.878906 42.710938 C 156.570312 42.988281 156.257812 43.269531 155.945312 43.554688 C 155.867188 43.628906 155.789062 43.699219 155.710938 43.773438 C 155.636719 43.847656 155.5625 43.921875 155.484375 43.992188 C 155.335938 44.144531 155.183594 44.289062 155.03125 44.445312 C 154.429688 45.046875 153.824219 45.667969 153.214844 46.308594 C 151.988281 47.582031 150.839844 48.976562 149.683594 50.433594 C 149.394531 50.796875 149.105469 51.167969 148.820312 51.542969 C 148.675781 51.730469 148.53125 51.917969 148.394531 52.105469 C 148.257812 52.300781 148.121094 52.492188 147.980469 52.6875 C 147.433594 53.46875 146.894531 54.265625 146.359375 55.085938 C 146.089844 55.492188 145.824219 55.910156 145.558594 56.328125 C 145.429688 56.539062 145.292969 56.746094 145.167969 56.960938 C 145.042969 57.175781 144.917969 57.390625 144.792969 57.609375 C 144.292969 58.476562 143.800781 59.367188 143.320312 60.273438 C 143.078125 60.726562 142.84375 61.183594 142.605469 61.648438 C 142.492188 61.882812 142.371094 62.113281 142.257812 62.347656 C 142.148438 62.585938 142.039062 62.824219 141.925781 63.0625 C 141.488281 64.019531 141.0625 64.996094 140.648438 65.992188 C 140.648438 65.992188 140.515625 65.632812 140.507812 64.746094 C 140.503906 64.304688 140.53125 63.726562 140.621094 63 C 140.667969 62.632812 140.730469 62.230469 140.8125 61.785156 C 140.855469 61.558594 140.902344 61.328125 140.953125 61.082031 C 140.980469 60.960938 141.011719 60.835938 141.039062 60.710938 C 141.070312 60.582031 141.101562 60.453125 141.136719 60.320312 C 141.417969 59.265625 141.804688 58.035156 142.34375 56.601562 C 142.609375 55.882812 142.917969 55.117188 143.265625 54.292969 C 143.632812 53.480469 144.046875 52.613281 144.507812 51.691406 C 144.972656 50.769531 145.484375 49.789062 146.058594 48.75 C 146.652344 47.726562 147.3125 46.640625 148.039062 45.492188 C 148.398438 44.917969 148.78125 44.328125 149.175781 43.722656 C 149.585938 43.121094 150.023438 42.511719 150.472656 41.882812 C 150.925781 41.25 151.398438 40.605469 151.890625 39.945312 C 152.136719 39.613281 152.386719 39.28125 152.644531 38.941406 C 152.914062 38.605469 153.1875 38.269531 153.460938 37.925781 L 152.46875 38.347656 C 152.304688 38.417969 152.144531 38.492188 151.984375 38.566406 L 151.5 38.785156 L 149.570312 39.679688 L 147.640625 40.589844 C 147.316406 40.742188 147.003906 40.902344 146.695312 41.058594 L 145.753906 41.539062 L 143.878906 42.503906 L 142.945312 42.992188 L 142.476562 43.238281 C 142.320312 43.320312 142.164062 43.40625 142.011719 43.488281 C 140.796875 44.164062 139.585938 44.851562 138.375 45.542969 L 137.015625 46.328125 L 136.574219 46.597656 L 134.8125 47.679688 L 133.054688 48.777344 C 132.472656 49.144531 131.878906 49.515625 131.320312 49.890625 C 130.183594 50.648438 129.054688 51.414062 127.925781 52.1875 L 127.078125 52.765625 L 126.65625 53.058594 L 126.246094 53.355469 L 124.609375 54.546875 C 115.867188 60.929688 107.964844 67.972656 100.839844 75.359375 C 100.691406 75.511719 100.550781 75.664062 100.40625 75.816406 L 99.984375 76.28125 C 99.703125 76.589844 99.425781 76.90625 99.148438 77.21875 C 98.601562 77.851562 98.066406 78.492188 97.542969 79.144531 C 97.023438 79.792969 96.515625 80.453125 96.023438 81.117188 C 95.894531 81.285156 95.78125 81.453125 95.664062 81.625 L 95.316406 82.128906 C 95.085938 82.46875 94.859375 82.8125 94.636719 83.15625 C 93.742188 84.527344 92.910156 85.933594 92.140625 87.363281 L 91.855469 87.898438 C 91.761719 88.078125 91.675781 88.257812 91.585938 88.441406 C 91.410156 88.800781 91.238281 89.164062 91.070312 89.527344 C 90.734375 90.257812 90.414062 90.992188 90.109375 91.730469 C 89.804688 92.46875 89.515625 93.210938 89.246094 93.957031 C 89.109375 94.332031 88.976562 94.703125 88.851562 95.082031 C 88.789062 95.269531 88.722656 95.457031 88.664062 95.644531 L 88.492188 96.210938 C 88.046875 97.722656 87.671875 99.25 87.363281 100.777344 C 87.207031 101.546875 87.070312 102.3125 86.949219 103.082031 C 86.890625 103.464844 86.835938 103.847656 86.785156 104.230469 C 86.738281 104.617188 86.699219 105.003906 86.664062 105.390625 C 86.523438 106.933594 86.453125 108.480469 86.457031 110.023438 C 86.457031 110.957031 86.472656 111.878906 86.5 112.773438 C 86.515625 113.222656 86.535156 113.664062 86.554688 114.101562 C 86.5625 114.214844 86.566406 114.320312 86.574219 114.429688 C 86.578125 114.539062 86.585938 114.644531 86.59375 114.753906 C 86.613281 114.96875 86.628906 115.183594 86.644531 115.398438 C 86.785156 117.101562 86.988281 118.695312 87.25 120.136719 C 87.78125 123.019531 88.578125 125.296875 89.6875 126.648438 C 89.6875 126.648438 89.359375 126.488281 88.769531 125.910156 C 88.183594 125.335938 87.335938 124.347656 86.308594 122.683594 C 85.285156 121.015625 84.078125 118.671875 82.796875 115.359375 C 82.472656 114.53125 82.148438 113.640625 81.820312 112.683594 C 81.496094 111.730469 81.15625 110.703125 80.84375 109.617188 C 80.207031 107.4375 79.574219 104.976562 78.96875 102.183594 C 70.734375 114.058594 63.894531 126.171875 58.175781 138.085938 C 52.460938 150 47.867188 161.71875 44.105469 172.902344 C 43.785156 173.84375 43.492188 174.789062 43.226562 175.738281 C 42.960938 176.695312 42.703125 177.648438 42.507812 178.609375 C 42.097656 180.535156 41.789062 182.476562 41.582031 184.421875 C 41.476562 185.394531 41.398438 186.367188 41.34375 187.34375 C 41.320312 187.828125 41.296875 188.316406 41.285156 188.804688 C 41.277344 189.046875 41.269531 189.289062 41.269531 189.535156 L 41.273438 190.265625 C 41.292969 192.21875 41.414062 194.164062 41.644531 196.101562 C 41.820312 197.625 42.023438 199.101562 42.253906 200.507812 C 42.371094 201.210938 42.492188 201.894531 42.625 202.558594 C 42.757812 203.21875 42.90625 203.859375 43.058594 204.46875 C 43.664062 206.917969 44.386719 208.925781 45.242188 210.214844 C 45.242188 210.214844 44.296875 208.992188 42.792969 206.691406 C 42.042969 205.542969 41.152344 204.121094 40.171875 202.445312 C 39.925781 202.027344 39.675781 201.59375 39.421875 201.144531 C 39.171875 200.695312 38.914062 200.230469 38.652344 199.75 C 38.136719 198.789062 37.601562 197.769531 37.054688 196.683594 C 36.269531 199.617188 35.605469 202.5 34.953125 205.308594 C 34.628906 206.714844 34.3125 208.101562 34.007812 209.46875 C 33.855469 210.15625 33.707031 210.835938 33.554688 211.511719 C 33.417969 212.191406 33.28125 212.863281 33.144531 213.53125 C 32.601562 216.203125 32.09375 218.800781 31.621094 221.320312 C 31.5 221.949219 31.382812 222.574219 31.269531 223.195312 C 31.238281 223.351562 31.210938 223.503906 31.183594 223.65625 C 31.15625 223.8125 31.128906 223.96875 31.105469 224.121094 C 31.050781 224.429688 31 224.734375 30.949219 225.042969 C 30.742188 226.265625 30.542969 227.464844 30.351562 228.644531 C 29.96875 231 29.613281 233.273438 29.285156 235.457031 C 29.242188 235.726562 29.203125 236 29.160156 236.269531 C 29.125 236.539062 29.085938 236.808594 29.050781 237.078125 C 28.980469 237.609375 28.910156 238.140625 28.839844 238.664062 C 28.703125 239.714844 28.574219 240.738281 28.445312 241.734375 C 28.191406 243.738281 27.964844 245.640625 27.753906 247.441406 C 27.703125 247.894531 27.652344 248.335938 27.601562 248.773438 C 27.554688 249.210938 27.503906 249.640625 27.464844 250.066406 C 27.382812 250.917969 27.304688 251.746094 27.230469 252.542969 C 27.21875 252.679688 27.183594 252.8125 27.136719 252.9375 L 24.917969 258.652344 L 23.8125 261.507812 L 23.535156 262.222656 L 23.265625 262.9375 L 22.730469 264.371094 L 20.589844 270.101562 L 19.515625 272.964844 L 18.984375 274.398438 L 18.714844 275.113281 L 18.457031 275.832031 L 16.148438 282.25 L 16.261719 282.296875 C 15.960938 283.117188 15.660156 283.941406 15.355469 284.769531 C 14.371094 287.496094 13.425781 290.203125 12.515625 292.871094 C 12.292969 293.539062 12.066406 294.207031 11.84375 294.867188 C 11.628906 295.535156 11.414062 296.195312 11.203125 296.855469 C 10.78125 298.175781 10.371094 299.488281 9.96875 300.789062 C 9.640625 301.84375 9.324219 302.890625 9.011719 303.929688 L 0.257812 329.460938 C 0.0625 330.027344 0.902344 330.425781 1.328125 329.964844 C 6.15625 324.71875 15.980469 318.3125 18.75 316.554688 C 19.078125 316.34375 19.03125 315.910156 18.667969 315.746094 C 16.222656 314.648438 14.34375 312.917969 12.921875 311.105469 C 16.117188 302.015625 19.285156 293.265625 22.421875 284.839844 L 22.488281 284.867188 L 24.683594 278.90625 C 25.226562 277.402344 25.808594 275.910156 26.378906 274.414062 L 29.808594 265.4375 C 30.089844 264.6875 30.394531 263.945312 30.6875 263.199219 L 31.574219 260.964844 L 33.347656 256.492188 L 34.234375 254.257812 L 34.898438 252.578125 L 35.128906 252.023438 L 38.796875 243.117188 L 39.714844 240.894531 L 40.660156 238.679688 L 42.554688 234.242188 L 44.453125 229.8125 C 44.609375 229.441406 44.773438 229.074219 44.9375 228.707031 L 45.429688 227.605469 L 46.410156 225.398438 L 48.367188 220.988281 L 49.351562 218.785156 C 49.683594 218.046875 50.023438 217.316406 50.359375 216.585938 L 54.421875 207.8125 L 58.613281 199.082031 C 64.285156 187.472656 70.277344 175.980469 76.691406 164.660156 C 78.261719 161.816406 79.941406 159.019531 81.582031 156.207031 L 82.820312 154.097656 L 82.976562 153.832031 L 83.132812 153.574219 L 84.09375 152.003906 L 86.644531 147.820312 L 87.285156 146.777344 C 87.5 146.429688 87.707031 146.078125 87.929688 145.734375 L 91.890625 139.523438 L 92.21875 139.003906 L 92.386719 138.742188 L 92.554688 138.488281 L 93.238281 137.460938 L 94.601562 135.414062 L 95.964844 133.359375 L 96.644531 132.335938 L 96.988281 131.824219 C 97.101562 131.652344 97.21875 131.484375 97.335938 131.3125 L 100.152344 127.257812 L 101.5625 125.226562 C 102.039062 124.554688 102.527344 123.890625 103.011719 123.21875 L 105.921875 119.207031 L 106.285156 118.707031 L 106.660156 118.210938 L 107.410156 117.222656 L 108.914062 115.242188 L 110.414062 113.257812 L 110.792969 112.765625 C 110.917969 112.601562 111.050781 112.441406 111.175781 112.277344 L 111.953125 111.300781 L 115.054688 107.390625 C 115.183594 107.230469 115.3125 107.0625 115.445312 106.902344 L 115.84375 106.421875 L 116.644531 105.457031 L 118.246094 103.53125 L 119.847656 101.609375 L 121.5 99.710938 L 123.152344 97.816406 L 123.976562 96.871094 C 124.117188 96.710938 124.25 96.554688 124.394531 96.398438 L 124.820312 95.929688 L 128.230469 92.207031 L 128.65625 91.742188 C 128.800781 91.585938 128.949219 91.4375 129.09375 91.285156 L 129.972656 90.371094 L 132.609375 87.625 L 133.050781 87.171875 C 133.199219 87.019531 133.351562 86.871094 133.503906 86.722656 L 135.316406 84.929688 C 140.152344 80.15625 145.230469 75.546875 150.621094 71.183594 L 150.265625 71.480469 C 150.148438 71.574219 150.027344 71.671875 149.914062 71.773438 L 149.226562 72.371094 L 146.46875 74.769531 L 146.125 75.070312 L 145.953125 75.222656 L 145.785156 75.375 L 145.117188 75.988281 L 142.445312 78.449219 L 141.78125 79.066406 L 139.835938 80.953125 L 138.542969 82.210938 L 137.894531 82.839844 C 137.789062 82.949219 137.679688 83.050781 137.574219 83.15625 L 137.257812 83.476562 L 133.496094 87.332031 C 133.085938 87.765625 132.683594 88.203125 132.277344 88.640625 L 129.851562 91.261719 C 123.433594 98.285156 117.484375 105.589844 111.894531 113.074219 C 106.304688 120.5625 101.074219 128.230469 96.109375 136.015625 L 94.246094 138.933594 L 93.78125 139.664062 L 93.332031 140.402344 L 92.433594 141.871094 L 90.632812 144.820312 L 89.734375 146.296875 L 89.285156 147.03125 L 88.847656 147.773438 L 85.371094 153.71875 L 84.9375 154.464844 L 84.722656 154.835938 L 84.507812 155.210938 L 83.671875 156.707031 L 81.988281 159.707031 L 80.308594 162.699219 C 80.167969 162.949219 80.035156 163.203125 79.898438 163.453125 L 79.492188 164.207031 L 78.679688 165.71875 C 77.601562 167.730469 76.511719 169.742188 75.441406 171.757812 L 72.300781 177.835938 L 71.519531 179.359375 C 71.261719 179.863281 70.992188 180.371094 70.742188 180.882812 L 69.230469 183.941406 L 67.714844 187 L 66.957031 188.53125 L 66.578125 189.292969 L 66.390625 189.675781 L 66.207031 190.0625 L 63.28125 196.21875 L 61.816406 199.292969 L 60.402344 202.390625 L 57.578125 208.578125 L 57.226562 209.351562 C 57.109375 209.613281 56.996094 209.871094 56.882812 210.128906 L 56.199219 211.683594 L 53.472656 217.90625 C 53.019531 218.945312 52.554688 219.980469 52.125 221.023438 L 49.488281 227.273438 L 48.171875 230.402344 C 47.949219 230.917969 47.742188 231.445312 47.527344 231.96875 L 46.894531 233.539062 L 44.351562 239.820312 L 43.714844 241.386719 L 43.398438 242.171875 L 43.089844 242.960938 L 41.859375 246.113281 L 39.40625 252.417969 L 38.792969 253.996094 L 38.199219 255.578125 L 37.015625 258.742188 C 36.511719 260.09375 38.082031 261.324219 39.3125 260.550781 C 41.203125 259.367188 43.0625 258.1875 44.890625 257.015625 C 45.8125 256.429688 46.726562 255.847656 47.640625 255.265625 C 48.546875 254.683594 49.453125 254.101562 50.351562 253.527344 C 52.144531 252.371094 53.910156 251.214844 55.644531 250.066406 C 56.511719 249.488281 57.371094 248.914062 58.230469 248.34375 C 59.089844 247.773438 59.945312 247.207031 60.800781 246.640625 C 62.5 245.507812 64.171875 244.382812 65.816406 243.253906 C 66.636719 242.691406 67.453125 242.128906 68.261719 241.570312 C 69.074219 241.011719 69.867188 240.445312 70.679688 239.894531 C 73.898438 237.679688 77.007812 235.476562 80.015625 233.289062 C 92.113281 224.570312 102.785156 216.207031 112.222656 208.15625 C 109.382812 208.425781 106.792969 208.625 104.4375 208.761719 C 102.09375 208.914062 99.992188 209.003906 98.097656 209.042969 C 94.3125 209.121094 91.390625 208.996094 89.183594 208.777344 C 86.972656 208.566406 85.476562 208.265625 84.535156 208.015625 C 83.589844 207.769531 83.199219 207.570312 83.199219 207.570312 C 87.484375 208.953125 92.367188 208.664062 97.28125 207.503906 C 97.894531 207.355469 98.507812 207.199219 99.125 207.023438 C 99.429688 206.9375 99.738281 206.851562 100.042969 206.757812 C 100.351562 206.667969 100.664062 206.574219 100.972656 206.480469 C 102.207031 206.097656 103.4375 205.671875 104.65625 205.21875 C 107.085938 204.308594 109.460938 203.269531 111.707031 202.1875 C 112.269531 201.917969 112.828125 201.652344 113.382812 201.386719 C 113.933594 201.117188 114.476562 200.847656 115.011719 200.578125 C 116.074219 200.039062 117.101562 199.5 118.082031 198.96875 C 119.058594 198.441406 119.988281 197.925781 120.859375 197.425781 C 121.734375 196.925781 122.558594 196.457031 123.324219 196.019531 C 126.375 194.261719 128.390625 192.96875 128.839844 192.761719 C 128.886719 192.738281 128.945312 192.753906 128.988281 192.792969 C 129.035156 192.839844 129.117188 192.84375 129.164062 192.800781 C 137.230469 185.007812 144.152344 177.515625 150.136719 170.285156 C 156.125 163.050781 161.175781 156.074219 165.515625 149.304688 C 165.785156 148.878906 166.050781 148.449219 166.3125 148.023438 C 166.582031 147.609375 166.847656 147.195312 167.109375 146.777344 C 167.632812 145.941406 168.140625 145.105469 168.640625 144.265625 C 168.761719 144.054688 168.886719 143.839844 169.007812 143.632812 L 169.191406 143.316406 L 169.378906 143.007812 C 169.625 142.597656 169.871094 142.1875 170.113281 141.777344 C 170.59375 140.957031 171.0625 140.128906 171.519531 139.296875 C 171.632812 139.089844 171.746094 138.878906 171.863281 138.671875 C 171.976562 138.46875 172.089844 138.269531 172.207031 138.066406 C 172.433594 137.660156 172.65625 137.257812 172.882812 136.851562 C 173.324219 136.035156 173.757812 135.21875 174.179688 134.394531 C 174.285156 134.1875 174.394531 133.988281 174.5 133.789062 C 174.605469 133.589844 174.710938 133.390625 174.816406 133.191406 C 175.027344 132.792969 175.234375 132.390625 175.441406 131.988281 C 175.644531 131.585938 175.847656 131.179688 176.050781 130.777344 C 176.148438 130.574219 176.246094 130.371094 176.347656 130.164062 C 176.445312 129.964844 176.542969 129.757812 176.644531 129.5625 C 179.8125 123.171875 182.511719 116.933594 185.007812 110.816406 C 184.074219 110.863281 183.160156 110.90625 182.269531 110.949219 C 181.367188 111.019531 180.484375 111.089844 179.625 111.15625 C 179.1875 111.1875 178.757812 111.21875 178.332031 111.253906 C 178.117188 111.269531 177.902344 111.285156 177.691406 111.300781 C 177.585938 111.308594 177.480469 111.316406 177.371094 111.324219 C 177.265625 111.332031 177.164062 111.347656 177.058594 111.355469 C 176.21875 111.441406 175.394531 111.523438 174.59375 111.605469 C 173.78125 111.683594 172.988281 111.761719 172.214844 111.839844 C 172.117188 111.847656 172.019531 111.855469 171.925781 111.867188 C 171.828125 111.878906 171.734375 111.890625 171.636719 111.902344 C 171.445312 111.925781 171.253906 111.949219 171.066406 111.96875 C 170.6875 112.015625 170.3125 112.058594 169.945312 112.101562 C 169.195312 112.191406 168.46875 112.273438 167.761719 112.355469 C 167.40625 112.394531 167.050781 112.433594 166.707031 112.472656 C 166.53125 112.492188 166.359375 112.511719 166.183594 112.53125 C 166.015625 112.550781 165.84375 112.574219 165.675781 112.597656 C 164.328125 112.773438 163.039062 112.933594 161.8125 113.078125 C 161.199219 113.148438 160.601562 113.21875 160.019531 113.285156 C 159.726562 113.3125 159.445312 113.355469 159.164062 113.390625 C 158.886719 113.425781 158.609375 113.460938 158.335938 113.496094 C 157.246094 113.632812 156.21875 113.75 155.25 113.855469 C 154.761719 113.90625 154.292969 113.953125 153.839844 114 C 153.613281 114.019531 153.390625 114.042969 153.171875 114.0625 C 152.953125 114.082031 152.738281 114.101562 152.527344 114.125 C 149.175781 114.484375 146.777344 114.589844 145.230469 114.59375 C 145.039062 114.59375 144.859375 114.59375 144.691406 114.59375 C 144.523438 114.589844 144.371094 114.589844 144.234375 114.589844 C 143.953125 114.582031 143.722656 114.574219 143.539062 114.566406 C 143.175781 114.546875 143.003906 114.523438 143.003906 114.523438 C 143.308594 114.5 143.621094 114.472656 143.933594 114.4375 C 144.09375 114.417969 144.25 114.398438 144.410156 114.375 C 144.570312 114.351562 144.730469 114.332031 144.898438 114.308594 C 145.550781 114.21875 146.21875 114.101562 146.902344 113.957031 C 148.269531 113.671875 149.6875 113.292969 151.144531 112.835938 C 151.324219 112.773438 151.511719 112.722656 151.695312 112.664062 C 151.882812 112.609375 152.066406 112.550781 152.253906 112.496094 C 152.628906 112.378906 153.003906 112.257812 153.382812 112.132812 C 154.136719 111.882812 154.898438 111.613281 155.664062 111.332031 C 157.1875 110.753906 158.777344 110.183594 160.355469 109.550781 C 160.75 109.394531 161.144531 109.238281 161.539062 109.074219 C 161.734375 108.992188 161.933594 108.910156 162.132812 108.828125 L 162.425781 108.703125 L 162.726562 108.585938 C 163.527344 108.273438 164.328125 107.953125 165.121094 107.625 C 165.519531 107.457031 165.917969 107.289062 166.3125 107.125 L 166.90625 106.871094 L 167.203125 106.746094 C 167.300781 106.703125 167.402344 106.664062 167.5 106.625 C 168.300781 106.304688 169.089844 105.980469 169.875 105.65625 C 170.265625 105.492188 170.65625 105.324219 171.046875 105.160156 C 171.242188 105.078125 171.433594 104.996094 171.628906 104.910156 C 171.820312 104.832031 172.019531 104.757812 172.210938 104.679688 C 172.992188 104.371094 173.757812 104.058594 174.515625 103.746094 C 174.894531 103.589844 175.269531 103.433594 175.644531 103.277344 L 175.921875 103.160156 L 176.203125 103.050781 C 176.390625 102.980469 176.574219 102.90625 176.761719 102.835938 C 177.5 102.546875 178.230469 102.261719 178.941406 101.972656 C 179.882812 101.578125 180.808594 101.199219 181.6875 100.746094 C 182.125 100.519531 182.554688 100.28125 182.972656 100.027344 L 183.285156 99.839844 L 183.597656 99.65625 C 183.804688 99.53125 184.011719 99.40625 184.210938 99.273438 C 184.617188 99.011719 185.011719 98.742188 185.398438 98.457031 C 185.589844 98.3125 185.78125 98.167969 185.96875 98.019531 L 186.246094 97.792969 L 186.527344 97.574219 C 187.269531 96.984375 187.96875 96.347656 188.632812 95.65625 C 191.3125 92.964844 193.449219 89.679688 195.128906 85.789062 C 195.464844 85.015625 195.792969 84.25 196.125 83.492188 C 196.46875 82.738281 196.804688 81.984375 197.144531 81.242188 C 197.316406 80.867188 197.488281 80.488281 197.65625 80.113281 C 197.832031 79.746094 198.007812 79.378906 198.179688 79.015625 C 198.53125 78.277344 198.878906 77.535156 199.238281 76.800781 C 199.597656 76.074219 199.960938 75.355469 200.320312 74.640625 C 200.410156 74.460938 200.5 74.28125 200.59375 74.097656 C 200.679688 73.921875 200.773438 73.734375 200.863281 73.5625 C 201.050781 73.210938 201.238281 72.859375 201.425781 72.507812 C 201.613281 72.152344 201.800781 71.800781 201.984375 71.453125 C 202.078125 71.277344 202.171875 71.101562 202.269531 70.925781 L 202.410156 70.660156 L 202.550781 70.402344 C 202.945312 69.714844 203.328125 69.03125 203.710938 68.351562 C 204.097656 67.660156 204.492188 67.007812 204.890625 66.34375 C 205.09375 66.011719 205.292969 65.679688 205.488281 65.351562 C 205.59375 65.1875 205.691406 65.019531 205.792969 64.855469 C 205.890625 64.691406 205.992188 64.535156 206.097656 64.371094 C 206.503906 63.730469 206.914062 63.09375 207.324219 62.457031 C 207.429688 62.300781 207.53125 62.140625 207.632812 61.980469 C 207.738281 61.824219 207.84375 61.671875 207.945312 61.519531 C 208.160156 61.207031 208.367188 60.902344 208.578125 60.597656 C 208.789062 60.289062 209 59.984375 209.207031 59.683594 C 209.3125 59.527344 209.417969 59.375 209.523438 59.226562 C 209.632812 59.082031 209.738281 58.933594 209.84375 58.785156 C 210.269531 58.199219 210.703125 57.613281 211.132812 57.035156 C 211.347656 56.738281 211.5625 56.464844 211.78125 56.183594 C 212 55.902344 212.21875 55.625 212.433594 55.347656 C 212.65625 55.070312 212.871094 54.792969 213.085938 54.523438 C 213.304688 54.246094 213.527344 53.984375 213.746094 53.71875 C 214.1875 53.191406 214.628906 52.667969 215.066406 52.15625 C 215.507812 51.648438 215.953125 51.160156 216.394531 50.671875 C 216.613281 50.425781 216.835938 50.183594 217.050781 49.945312 C 217.277344 49.710938 217.5 49.480469 217.71875 49.25 C 218.160156 48.792969 218.597656 48.335938 219.035156 47.898438 C 219.921875 47.035156 220.78125 46.195312 221.648438 45.433594 C 221.867188 45.238281 222.078125 45.046875 222.292969 44.859375 C 222.5 44.671875 222.710938 44.484375 222.925781 44.308594 C 223.351562 43.953125 223.773438 43.605469 224.1875 43.269531 C 227.417969 40.597656 230.070312 38.746094 231.667969 37.65625 C 232.125 37.34375 232.304688 36.894531 232.21875 36.433594 " fill-opacity="1" fill-rule="nonzero"/></g></svg>