<svg xmlns="http://www.w3.org/2000/svg" xmlns:xlink="http://www.w3.org/1999/xlink" width="40" zoomAndPan="magnify" viewBox="0 0 30 30.000001" height="40" preserveAspectRatio="xMidYMid meet" version="1.0"><defs><clipPath id="4b4142e8c3"><path d="M 15 22 L 25 22 L 25 28.136719 L 15 28.136719 Z M 15 22 " clip-rule="nonzero"/></clipPath><clipPath id="e8d9a59399"><path d="M 5 22 L 15 22 L 15 28.136719 L 5 28.136719 Z M 5 22 " clip-rule="nonzero"/></clipPath><clipPath id="7069a465e3"><path d="M 16.347656 11.839844 L 27.667969 11.839844 L 27.667969 22.496094 L 16.347656 22.496094 Z M 16.347656 11.839844 " clip-rule="nonzero"/></clipPath><clipPath id="29c4b96dbd"><path d="M 2.3125 11 L 14 11 L 14 23 L 2.3125 23 Z M 2.3125 11 " clip-rule="nonzero"/></clipPath><clipPath id="82495ac0bb"><path d="M 23.335938 7.449219 L 27.667969 7.449219 L 27.667969 16.855469 L 23.335938 16.855469 Z M 23.335938 7.449219 " clip-rule="nonzero"/></clipPath><clipPath id="5793084a60"><path d="M 2.3125 7 L 7 7 L 7 17 L 2.3125 17 Z M 2.3125 7 " clip-rule="nonzero"/></clipPath><clipPath id="54f6f2b854"><path d="M 9 0.554688 L 21 0.554688 L 21 9 L 9 9 Z M 9 0.554688 " clip-rule="nonzero"/></clipPath></defs><g clip-path="url(#4b4142e8c3)"><path fill="#040606" d="M 24.535156 22.210938 L 16.003906 28.085938 L 15.933594 28.136719 L 15.933594 24.070312 L 15.980469 24.0625 L 24.535156 22.210938 " fill-opacity="1" fill-rule="nonzero"/></g><g clip-path="url(#e8d9a59399)"><path fill="#040606" d="M 5.507812 22.210938 L 14.0625 24.0625 L 14.109375 24.070312 L 14.109375 28.136719 L 14.042969 28.085938 L 5.507812 22.210938 " fill-opacity="1" fill-rule="nonzero"/></g><g clip-path="url(#7069a465e3)"><path fill="#040606" d="M 22.386719 11.886719 L 27.371094 19.746094 L 16.769531 22.03125 Z M 22.386719 11.886719 " fill-opacity="1" fill-rule="nonzero"/></g><g clip-path="url(#29c4b96dbd)"><path fill="#040606" d="M 7.660156 11.886719 L 13.273438 22.03125 L 2.671875 19.746094 Z M 7.660156 11.886719 " fill-opacity="1" fill-rule="nonzero"/></g><path fill="#040606" d="M 9.039062 10.609375 C 9.140625 10.621094 9.242188 10.625 9.351562 10.625 L 21 10.625 L 15.023438 21.421875 L 9.039062 10.609375 " fill-opacity="1" fill-rule="nonzero"/><g clip-path="url(#82495ac0bb)"><path fill="#040606" d="M 26.941406 7.890625 L 27.671875 16.816406 L 23.566406 10.34375 Z M 26.941406 7.890625 " fill-opacity="1" fill-rule="nonzero"/></g><g clip-path="url(#5793084a60)"><path fill="#040606" d="M 3.101562 7.890625 L 6.480469 10.34375 L 2.375 16.816406 Z M 3.101562 7.890625 " fill-opacity="1" fill-rule="nonzero"/></g><path fill="#040606" d="M 18.429688 2.246094 L 19.757812 2.886719 L 26.359375 6.070312 L 22.550781 8.832031 L 18.429688 2.246094 " fill-opacity="1" fill-rule="nonzero"/><path fill="#040606" d="M 11.617188 2.246094 L 7.492188 8.832031 L 3.6875 6.070312 L 10.289062 2.886719 L 11.617188 2.246094 " fill-opacity="1" fill-rule="nonzero"/><g clip-path="url(#54f6f2b854)"><path fill="#040606" d="M 15.011719 0.554688 L 15.015625 0.554688 C 15.019531 0.554688 15.019531 0.554688 15.023438 0.554688 C 15.089844 0.554688 15.15625 0.566406 15.222656 0.574219 L 20.394531 8.832031 L 9.652344 8.832031 L 14.824219 0.574219 C 14.886719 0.566406 14.949219 0.554688 15.011719 0.554688 " fill-opacity="1" fill-rule="nonzero"/></g></svg>