<svg xmlns="http://www.w3.org/2000/svg" xmlns:xlink="http://www.w3.org/1999/xlink" width="40" zoomAndPan="magnify" viewBox="0 0 30 30.000001" height="40" preserveAspectRatio="xMidYMid meet" version="1.0"><defs><clipPath id="90bcfba63e"><path d="M 2.273438 0 L 27.652344 0 L 27.652344 29.03125 L 2.273438 29.03125 Z M 2.273438 0 " clip-rule="nonzero"/></clipPath><clipPath id="4a60ddaa1c"><path d="M 2.261719 14 L 5 14 L 5 17 L 2.261719 17 Z M 2.261719 14 " clip-rule="nonzero"/></clipPath></defs><g clip-path="url(#90bcfba63e)"><path fill="#000000" d="M 26.863281 21.253906 C 25.933594 20.726562 24.886719 20.148438 23.941406 19.617188 C 25.007812 15.933594 26.070312 12.246094 27.125 8.550781 C 27.203125 12.8125 27.214844 17.140625 27.269531 21.421875 C 27.125 21.441406 26.992188 21.324219 26.863281 21.253906 Z M 15.992188 28.097656 C 18.464844 25.382812 21.121094 22.640625 23.679688 19.929688 C 24.855469 20.535156 25.960938 21.210938 27.125 21.828125 C 23.433594 23.9375 19.6875 25.992188 15.992188 28.097656 Z M 14.960938 28.550781 C 12.296875 25.660156 9.476562 22.796875 6.867188 19.929688 C 12.230469 19.875 17.699219 19.921875 23.105469 19.90625 C 23.160156 19.984375 22.988281 20.0625 22.910156 20.148438 C 20.355469 22.972656 17.582031 25.773438 14.960938 28.550781 Z M 2.84375 21.851562 C 3.957031 21.214844 5.0625 20.570312 6.21875 19.980469 C 6.464844 20.050781 6.605469 20.265625 6.769531 20.4375 C 8.535156 22.242188 10.324219 24.136719 12.0625 26.007812 C 12.710938 26.703125 13.347656 27.398438 14.003906 28.070312 C 10.304688 26.074219 6.574219 23.898438 2.84375 21.851562 Z M 2.820312 8.550781 C 3.921875 12.199219 4.933594 15.9375 6.027344 19.59375 C 4.953125 20.230469 3.78125 20.898438 2.699219 21.445312 C 2.738281 17.144531 2.796875 12.867188 2.820312 8.550781 Z M 14.578125 4.105469 C 11.910156 9.125 9.039062 14.144531 6.316406 19.1875 C 5.148438 15.257812 4.027344 11.28125 2.890625 7.324219 C 6.804688 6.269531 10.6875 5.183594 14.578125 4.105469 Z M 14.769531 0.480469 C 14.824219 1.488281 14.777344 2.601562 14.792969 3.648438 C 11.164062 4.65625 7.542969 5.664062 3.894531 6.652344 C 7.511719 4.585938 11.136719 2.53125 14.769531 0.480469 Z M 23.390625 19.523438 C 17.800781 19.535156 12.15625 19.496094 6.601562 19.546875 C 6.582031 19.375 6.71875 19.230469 6.792969 19.089844 C 9.503906 14.195312 12.261719 9.148438 14.984375 4.25 C 17.785156 9.324219 20.652344 14.464844 23.390625 19.523438 Z M 27.078125 7.347656 C 25.945312 11.292969 24.800781 15.230469 23.679688 19.1875 C 20.898438 14.171875 18.121094 9.152344 15.367188 4.105469 C 19.269531 5.1875 23.191406 6.25 27.078125 7.347656 Z M 15.175781 0.503906 C 15.199219 0.488281 15.21875 0.476562 15.222656 0.503906 C 18.863281 2.519531 22.433594 4.609375 26.074219 6.628906 C 22.464844 5.707031 18.796875 4.636719 15.175781 3.648438 C 15.175781 2.601562 15.175781 1.554688 15.175781 0.503906 Z M 27.535156 7.085938 C 26.570312 6.421875 25.492188 5.890625 24.445312 5.28125 C 21.636719 3.652344 18.707031 1.996094 15.847656 0.382812 C 15.578125 0.234375 15.222656 -0.0078125 14.984375 0 C 14.628906 0.0117188 14.25 0.320312 13.929688 0.503906 C 10.335938 2.582031 6.785156 4.566406 3.152344 6.605469 C 2.925781 6.730469 2.46875 6.980469 2.433594 7.109375 C 2.382812 7.300781 2.460938 7.691406 2.460938 8.019531 C 2.460938 8.945312 2.449219 9.945312 2.433594 10.804688 C 2.386719 13.980469 2.339844 16.894531 2.339844 20.074219 C 2.339844 20.621094 2.191406 21.5 2.339844 21.898438 C 2.40625 22.085938 2.808594 22.265625 3.058594 22.40625 C 6.800781 24.507812 10.4375 26.539062 14.144531 28.625 C 14.402344 28.765625 14.757812 29.039062 14.984375 29.03125 C 15.195312 29.027344 15.53125 28.773438 15.800781 28.625 C 19.535156 26.539062 23.183594 24.472656 26.886719 22.40625 C 27.179688 22.242188 27.578125 22.089844 27.652344 21.851562 C 27.621094 16.9375 27.519531 11.96875 27.535156 7.085938 " fill-opacity="1" fill-rule="nonzero"/></g><path fill="#000000" d="M 12.230469 2.976562 C 12.410156 2.859375 12.707031 2.738281 12.949219 2.761719 C 12.785156 2.910156 12.5625 3 12.230469 2.976562 Z M 11.777344 3.699219 C 12.042969 3.515625 12.441406 3.371094 12.804688 3.363281 C 12.609375 3.621094 12.222656 3.691406 11.777344 3.699219 Z M 11.847656 3.21875 C 11.617188 3.304688 11.414062 3.371094 11.367188 3.554688 C 11.097656 4.617188 13.824219 3.871094 13.117188 3.121094 C 13.265625 3.023438 13.335938 2.976562 13.355469 2.832031 C 13.480469 1.953125 11.441406 2.488281 11.847656 3.21875 " fill-opacity="1" fill-rule="nonzero"/><path fill="#000000" d="M 20.085938 3.867188 C 20.054688 3.585938 19.441406 3.628906 19.152344 3.554688 C 18.984375 3.484375 18.894531 3.027344 18.671875 3.050781 C 18.550781 3.0625 18.476562 3.222656 18.503906 3.386719 C 18.277344 3.324219 18.027344 3.289062 17.8125 3.21875 C 17.90625 3.027344 18.371094 2.9375 18.265625 2.617188 C 18.253906 2.582031 18.171875 2.472656 18.027344 2.496094 C 17.902344 2.519531 17.746094 2.78125 17.617188 2.882812 C 17.453125 3.019531 17.238281 3.113281 17.234375 3.289062 C 17.234375 3.613281 17.757812 3.601562 18.074219 3.675781 C 18.355469 3.738281 18.71875 3.789062 18.886719 3.867188 C 19.121094 3.976562 19.105469 4.332031 19.488281 4.25 C 19.578125 4.226562 19.546875 4.046875 19.558594 4.011719 C 19.804688 4.101562 20.117188 4.117188 20.085938 3.867188 " fill-opacity="1" fill-rule="nonzero"/><path fill="#000000" d="M 10.625 3.167969 C 10.34375 3.21875 10.148438 3.589844 9.859375 3.816406 C 9.742188 3.914062 9.125 4.28125 9.140625 4.464844 C 9.164062 4.734375 9.464844 4.609375 9.621094 4.492188 C 9.992188 4.207031 10.199219 4.03125 10.507812 3.746094 C 10.621094 3.640625 10.902344 3.46875 10.867188 3.289062 C 10.839844 3.164062 10.734375 3.152344 10.625 3.167969 " fill-opacity="1" fill-rule="nonzero"/><path fill="#000000" d="M 20.46875 9.125 C 20.65625 9.453125 20.703125 9.695312 20.875 9.726562 C 21.34375 9.804688 21.113281 9.164062 20.972656 9.003906 C 21.535156 8.816406 22.019531 8.550781 22.527344 8.308594 C 22.699219 7.953125 22.410156 7.871094 22.144531 7.707031 C 21.863281 7.535156 21.5625 7.207031 21.332031 7.515625 C 21.269531 7.933594 21.667969 7.882812 21.785156 8.117188 C 21.433594 8.265625 21.113281 8.449219 20.707031 8.550781 C 20.578125 8.402344 20.613281 8.308594 20.492188 8.261719 C 20.328125 8.195312 20.160156 8.296875 20.132812 8.453125 C 20.097656 8.648438 20.3125 8.847656 20.46875 9.125 " fill-opacity="1" fill-rule="nonzero"/><path fill="#000000" d="M 6.433594 10.589844 C 6.746094 10.5 6.460938 10.164062 6.457031 9.941406 C 6.457031 9.523438 6.828125 9.203125 7.105469 8.980469 C 7.421875 9.152344 7.363281 9.625 7.394531 10.085938 C 7.425781 10.585938 7.523438 11.457031 7.917969 11.453125 C 8.230469 11.453125 8.453125 10.6875 8.636719 10.398438 C 8.773438 10.1875 8.84375 10.085938 8.996094 9.871094 C 9.125 9.6875 9.605469 9.125 9.09375 9.101562 C 8.847656 9.089844 8.574219 9.601562 8.46875 9.75 C 8.300781 10 8.152344 10.265625 7.96875 10.542969 C 7.832031 9.714844 7.992188 8.714844 7.296875 8.5 C 7.085938 8.4375 6.863281 8.503906 6.746094 8.574219 C 6.445312 8.746094 6.003906 9.363281 5.957031 9.796875 C 5.910156 10.214844 6.09375 10.6875 6.433594 10.589844 " fill-opacity="1" fill-rule="nonzero"/><path fill="#000000" d="M 22.074219 10.183594 C 21.769531 10.5625 22.445312 10.976562 22.503906 11.335938 C 22.25 11.378906 21.914062 11.695312 22.21875 11.933594 C 22.480469 11.964844 22.582031 11.835938 22.769531 11.789062 C 22.96875 11.960938 22.992188 12.460938 23.320312 12.4375 C 23.761719 12.414062 23.382812 11.734375 23.222656 11.550781 C 23.425781 11.457031 23.84375 11.308594 23.75 11 C 23.636719 10.625 23.164062 11.035156 22.960938 11.117188 C 22.886719 10.894531 22.726562 10.757812 22.648438 10.542969 C 22.917969 10.398438 23.726562 10.398438 23.894531 10.15625 C 24.054688 9.925781 23.820312 9.699219 23.628906 9.75 C 23.308594 9.835938 22.164062 10.066406 22.074219 10.183594 " fill-opacity="1" fill-rule="nonzero"/><path fill="#000000" d="M 12.660156 14.457031 C 12.457031 14.660156 11.960938 15.269531 12.015625 15.65625 C 12.070312 16.0625 12.921875 15.886719 13.355469 15.871094 C 13.910156 15.855469 14.675781 16.054688 14.601562 15.585938 C 14.535156 15.164062 13.039062 15.449219 12.613281 15.394531 C 12.980469 14.511719 14.09375 14.324219 14.363281 13.472656 C 14.480469 13.089844 14.382812 12.601562 14.097656 12.34375 C 13.535156 11.832031 12.632812 12.207031 12.328125 12.65625 C 12.1875 12.855469 11.878906 13.574219 12.375 13.519531 C 12.585938 13.496094 12.570312 13.207031 12.710938 12.992188 C 12.808594 12.835938 12.953125 12.707031 13.09375 12.65625 C 13.503906 12.5 13.996094 12.707031 13.90625 13.253906 C 13.828125 13.738281 13.035156 14.082031 12.660156 14.457031 " fill-opacity="1" fill-rule="nonzero"/><path fill="#000000" d="M 16.613281 12.847656 C 16.707031 12.800781 16.882812 12.78125 16.996094 12.773438 C 16.992188 12.777344 17.003906 12.753906 17.019531 12.75 C 18.117188 12.691406 18.1875 15.4375 17.1875 15.585938 C 17.023438 15.609375 16.65625 15.566406 16.445312 15.394531 C 15.890625 14.933594 16.011719 13.152344 16.613281 12.847656 Z M 16.132812 15.800781 C 16.597656 16.160156 17.363281 16.167969 17.761719 15.898438 C 17.980469 15.75 18.207031 15.390625 18.289062 15.105469 C 18.644531 13.859375 18.207031 12.148438 16.949219 12.269531 C 16.722656 12.292969 16.550781 12.320312 16.398438 12.390625 C 15.492188 12.824219 15.253906 15.121094 16.132812 15.800781 " fill-opacity="1" fill-rule="nonzero"/><g clip-path="url(#4a60ddaa1c)"><path fill="#000000" d="M 3.488281 16.976562 C 3.757812 16.902344 3.355469 16.089844 3.34375 15.898438 C 3.292969 14.894531 4.042969 16.132812 4.28125 16.089844 C 4.609375 16.03125 4.304688 15.367188 4.230469 15.128906 C 4.128906 14.792969 3.972656 13.804688 3.5625 14.191406 C 3.597656 14.597656 3.796875 14.835938 3.847656 15.226562 C 3.402344 14.921875 3.015625 15.214844 2.960938 15.65625 C 2.902344 16.152344 3.203125 17.058594 3.488281 16.976562 " fill-opacity="1" fill-rule="nonzero"/></g><path fill="#000000" d="M 26.167969 17.074219 C 26.046875 16.722656 26.199219 16.265625 26.335938 16.015625 C 26.628906 16.300781 26.449219 16.894531 26.167969 17.074219 Z M 26.527344 15.65625 C 25.746094 15.347656 25.375 17.453125 26.191406 17.457031 C 26.351562 17.460938 26.386719 17.390625 26.527344 17.339844 C 26.527344 17.710938 26.1875 18.742188 26.742188 18.347656 C 26.898438 17.734375 27.148438 15.898438 26.527344 15.65625 " fill-opacity="1" fill-rule="nonzero"/><path fill="#000000" d="M 4.230469 16.472656 C 4.109375 16.484375 3.972656 16.632812 4.160156 16.90625 C 4 17.136719 3.917969 17.355469 3.777344 17.675781 C 3.6875 17.878906 3.390625 18.25 3.441406 18.492188 C 3.519531 18.871094 4.679688 18.734375 4.28125 18.324219 C 4.160156 18.261719 4.046875 18.34375 3.894531 18.324219 C 4.054688 17.984375 4.183594 17.621094 4.375 17.3125 C 4.464844 17.53125 4.785156 17.5625 4.804688 17.3125 C 4.816406 17.175781 4.394531 16.457031 4.230469 16.472656 " fill-opacity="1" fill-rule="nonzero"/><path fill="#000000" d="M 24.277344 21.78125 C 23.996094 21.992188 22.519531 21.929688 22.816406 22.476562 C 23.050781 22.515625 23.425781 22.40625 23.820312 22.308594 C 24.128906 22.234375 24.609375 22.152344 24.730469 21.996094 C 24.929688 21.742188 24.449219 21.195312 24.207031 21.515625 C 24.15625 21.660156 24.304688 21.734375 24.277344 21.78125 " fill-opacity="1" fill-rule="nonzero"/><path fill="#000000" d="M 7.34375 22.910156 C 6.835938 23.21875 6.132812 22.835938 6.003906 22.378906 C 6.5 22.105469 7.390625 22.347656 7.34375 22.910156 Z M 7.535156 22.308594 C 7.308594 22 6.777344 21.804688 6.125 21.925781 C 5.375 22.0625 5.644531 22.789062 6.074219 23.125 C 6.34375 23.332031 6.742188 23.421875 7.035156 23.414062 C 7.75 23.386719 7.925781 22.835938 7.535156 22.308594 " fill-opacity="1" fill-rule="nonzero"/><path fill="#000000" d="M 14.9375 23.414062 C 14.695312 23.246094 13.929688 23.367188 13.929688 22.933594 C 13.929688 22.597656 14.570312 22.566406 14.914062 22.546875 C 15.28125 22.527344 15.699219 22.640625 15.726562 22.886719 C 15.777344 23.300781 15.242188 23.292969 14.9375 23.414062 Z M 15.605469 24.324219 C 15.488281 24.722656 14.417969 24.503906 14.21875 24.277344 C 14.226562 24.042969 14.59375 23.847656 14.914062 23.84375 C 15.207031 23.84375 15.722656 23.9375 15.605469 24.324219 Z M 14.984375 22.042969 C 14.21875 22.085938 13.398438 22.238281 13.402344 22.933594 C 13.40625 23.320312 13.691406 23.519531 13.953125 23.675781 C 13.84375 23.855469 13.726562 23.96875 13.714844 24.207031 C 13.683594 25.011719 15.210938 25.285156 15.824219 24.855469 C 16.253906 24.550781 16.183594 23.929688 15.847656 23.605469 C 16.675781 22.980469 16.03125 21.984375 14.984375 22.042969 " fill-opacity="1" fill-rule="nonzero"/><path fill="#000000" d="M 20.949219 24.46875 C 21.050781 24.09375 21.324219 23.886719 21.640625 23.726562 C 21.617188 24.085938 21.335938 24.394531 20.949219 24.46875 Z M 22.960938 23.222656 C 22.355469 22.964844 21.324219 23.332031 20.898438 23.773438 C 20.6875 23.996094 20.324219 24.695312 20.828125 24.855469 C 21.59375 24.832031 22.046875 24.257812 22.027344 23.605469 C 22.203125 23.53125 22.496094 23.511719 22.71875 23.558594 C 22.785156 23.867188 23.320312 24.03125 23.246094 23.535156 C 23.230469 23.429688 23.070312 23.265625 22.960938 23.222656 " fill-opacity="1" fill-rule="nonzero"/><path fill="#000000" d="M 8.734375 23.535156 C 8.441406 23.558594 8.628906 23.910156 8.660156 23.988281 C 8.304688 24.039062 7.441406 23.734375 7.417969 24.085938 C 7.410156 24.199219 7.605469 24.378906 7.703125 24.445312 C 7.882812 24.566406 8.085938 24.613281 8.328125 24.613281 C 8.40625 24.566406 8.417969 24.449219 8.445312 24.351562 C 8.652344 24.335938 8.789062 24.390625 8.996094 24.375 C 9.097656 24.601562 9.464844 24.679688 9.476562 24.398438 C 9.480469 24.269531 8.867188 23.523438 8.734375 23.535156 " fill-opacity="1" fill-rule="nonzero"/></svg>