<svg xmlns="http://www.w3.org/2000/svg" xmlns:xlink="http://www.w3.org/1999/xlink" width="800" zoomAndPan="magnify" viewBox="0 0 600 374.999991" height="500" preserveAspectRatio="xMidYMid meet" version="1.0"><defs><g/></defs><g fill="#393e46" fill-opacity="1"><g transform="translate(123.506293, 352.918667)"><g><path d="M 296.859375 -238.300781 C 297.265625 -241.960938 297.671875 -245.621094 297.671875 -250.90625 L 297.671875 -263.917969 L 343.214844 -263.917969 L 343.214844 -292.792969 L 290.757812 -292.792969 L 290.757812 -296.042969 C 290.757812 -304.585938 289.539062 -311.496094 287.503906 -316.785156 L 323.695312 -316.785156 C 318.003906 -331.421875 306.210938 -335.082031 296.042969 -335.082031 L 72.792969 -335.082031 C 69.132812 -335.082031 61 -333.863281 61 -321.257812 L 61 -316.785156 L 24.804688 -316.785156 L 24.804688 -292.792969 L 57.746094 -292.792969 L 57.746094 -288.726562 C 57.746094 -276.117188 65.878906 -274.898438 69.539062 -274.898438 L 262.292969 -274.898438 C 262.699219 -274.898438 263.511719 -274.492188 263.511719 -273.679688 L 263.511719 -263.917969 L 227.726562 -263.917969 L 227.726562 -261.074219 C 227.726562 -260.664062 227.726562 -260.257812 227.320312 -260.257812 L 174.046875 -221.625 L 211.867188 -221.625 L 168.761719 -190.722656 L 131.757812 -190.722656 L 105.730469 -172.015625 L 143.140625 -172.015625 L 108.578125 -147.210938 L 78.484375 -147.210938 L 45.953125 -123.625 C 42.292969 -121.183594 39.445312 -118.742188 37.003906 -116.304688 C 34.566406 -113.863281 32.9375 -110.609375 31.71875 -107.355469 C 30.5 -104.105469 29.277344 -100.445312 28.871094 -95.96875 C 28.464844 -92.3125 28.058594 -87.835938 28.058594 -82.144531 L 28.058594 -81.738281 L 52.863281 -81.738281 L 52.863281 -71.164062 L 42.292969 -71.164062 L 42.292969 -70.757812 L 13.417969 -70.757812 L 13.417969 -40.664062 L 55.710938 -40.664062 L 55.710938 -38.632812 C 55.710938 -26.027344 58.152344 -16.671875 63.03125 -10.167969 C 63.03125 -9.757812 63.4375 -9.757812 63.4375 -9.757812 L 32.53125 -9.757812 C 37.414062 -3.253906 45.546875 0 56.117188 0 L 279.371094 0 C 282.21875 0 288.726562 -0.8125 290.351562 -9.757812 L 321.257812 -9.757812 C 321.664062 -10.980469 321.664062 -12.199219 321.664062 -13.828125 L 321.664062 -40.664062 L 294.011719 -40.664062 L 294.011719 -46.359375 C 294.011719 -58.964844 285.878906 -60.183594 282.21875 -60.183594 L 89.871094 -60.183594 C 89.058594 -60.183594 88.652344 -61 88.652344 -61.40625 L 88.652344 -70.757812 L 102.476562 -70.757812 L 102.476562 -71.164062 L 147.617188 -71.164062 L 147.617188 -74.824219 C 147.617188 -75.230469 148.023438 -75.636719 148.023438 -75.636719 L 156.5625 -81.738281 L 97.597656 -81.738281 L 188.6875 -147.210938 L 218.78125 -147.210938 L 253.347656 -172.015625 L 215.933594 -172.015625 L 241.960938 -190.722656 L 278.964844 -190.722656 L 307.023438 -211.054688 C 310.683594 -213.492188 313.9375 -215.933594 315.972656 -218.375 C 317.191406 -219.1875 318.003906 -220.40625 318.816406 -221.625 L 290.757812 -221.625 C 291.976562 -223.253906 293.199219 -225.285156 294.011719 -227.320312 C 295.230469 -230.574219 296.453125 -234.234375 296.859375 -238.300781 Z M 142.328125 -207.394531 L 74.824219 -207.394531 L 74.824219 -215.527344 L 142.328125 -215.527344 Z M 217.152344 -87.835938 L 149.648438 -87.835938 L 149.648438 -95.5625 L 217.152344 -95.5625 Z M 270.019531 -116.710938 L 202.515625 -116.710938 L 202.515625 -124.84375 L 270.019531 -124.84375 Z M 189.5 -250.5 L 115.898438 -250.5 L 115.898438 -257.003906 L 189.5 -257.003906 Z M 189.5 -250.5 "/></g></g></g><g fill="#32e0c4" fill-opacity="1"><g transform="translate(80.54449, 206.46189)"><g><path d="M 51.75 -11.65625 L 26.152344 -11.65625 C 24.496094 -11.65625 23.15625 -11.816406 22.054688 -12.207031 C 21.109375 -12.523438 20.320312 -13.074219 19.769531 -13.941406 C 19.140625 -14.808594 18.667969 -15.988281 18.429688 -17.40625 C 18.117188 -18.984375 18.039062 -20.953125 18.039062 -23.316406 L 18.039062 -62.148438 C 18.039062 -64.667969 16.460938 -64.902344 15.832031 -64.902344 L 8.585938 -64.902344 C 7.875 -64.902344 6.300781 -64.667969 6.300781 -62.148438 L 6.300781 -24.652344 C 6.300781 -20.242188 6.695312 -16.460938 7.402344 -13.390625 C 8.113281 -10.238281 9.214844 -7.640625 10.792969 -5.671875 C 12.367188 -3.625 14.414062 -2.125 16.933594 -1.261719 C 19.296875 -0.394531 22.292969 0.078125 25.757812 0.078125 L 51.75 0.078125 C 52.457031 0.078125 53.957031 -0.234375 53.957031 -2.679688 L 53.957031 -8.902344 C 53.957031 -11.34375 52.457031 -11.65625 51.75 -11.65625 Z M 51.75 -11.65625 "/></g></g></g><g fill="#32e0c4" fill-opacity="1"><g transform="translate(144.730022, 206.46189)"><g><path d="M 15.753906 -64.902344 L 8.507812 -64.902344 C 7.875 -64.902344 6.300781 -64.589844 6.300781 -62.148438 L 6.300781 -2.679688 C 6.300781 -0.234375 7.875 0.078125 8.507812 0.078125 L 15.753906 0.078125 C 16.382812 0.078125 17.957031 -0.234375 17.957031 -2.679688 L 17.957031 -62.148438 C 17.957031 -64.589844 16.382812 -64.902344 15.753906 -64.902344 Z M 15.753906 -64.902344 "/></g></g></g><g fill="#32e0c4" fill-opacity="1"><g transform="translate(172.924406, 206.46189)"><g><path d="M 60.730469 -64.902344 L 8.585938 -64.902344 C 7.875 -64.902344 6.300781 -64.667969 6.300781 -62.226562 L 6.300781 -56.082031 C 6.300781 -53.484375 7.875 -53.246094 8.585938 -53.246094 L 28.828125 -53.246094 L 28.828125 -2.679688 C 28.828125 -0.234375 30.402344 0 31.035156 0 L 38.28125 0 C 38.988281 0 40.484375 -0.234375 40.484375 -2.679688 L 40.484375 -53.246094 L 60.730469 -53.246094 C 61.4375 -53.246094 63.011719 -53.484375 63.011719 -56.082031 L 63.011719 -62.226562 C 63.011719 -64.667969 61.4375 -64.902344 60.730469 -64.902344 Z M 60.730469 -64.902344 "/></g></g></g><g fill="#32e0c4" fill-opacity="1"><g transform="translate(246.166794, 206.46189)"><g><path d="M 57.183594 -64.902344 L 49.9375 -64.902344 C 49.308594 -64.902344 47.8125 -64.589844 47.8125 -62.148438 L 47.8125 -38.597656 L 17.957031 -38.597656 L 17.957031 -62.148438 C 17.957031 -64.589844 16.460938 -64.902344 15.753906 -64.902344 L 8.585938 -64.902344 C 7.875 -64.902344 6.300781 -64.589844 6.300781 -62.148438 L 6.300781 -2.679688 C 6.300781 -0.234375 7.875 0.078125 8.585938 0.078125 L 15.753906 0.078125 C 16.460938 0.078125 17.957031 -0.234375 17.957031 -2.679688 L 17.957031 -26.9375 L 47.8125 -26.9375 L 47.8125 -2.679688 C 47.8125 -0.234375 49.308594 0.078125 49.9375 0.078125 L 57.183594 0.078125 C 57.894531 0.078125 59.46875 -0.234375 59.46875 -2.679688 L 59.46875 -62.148438 C 59.46875 -64.589844 57.894531 -64.902344 57.183594 -64.902344 Z M 57.183594 -64.902344 "/></g></g></g><g fill="#32e0c4" fill-opacity="1"><g transform="translate(315.865195, 206.46189)"><g><path d="M 60.730469 -64.902344 L 8.585938 -64.902344 C 7.875 -64.902344 6.300781 -64.667969 6.300781 -62.226562 L 6.300781 -56.082031 C 6.300781 -53.484375 7.875 -53.246094 8.585938 -53.246094 L 28.828125 -53.246094 L 28.828125 -2.679688 C 28.828125 -0.234375 30.402344 0 31.035156 0 L 38.28125 0 C 38.988281 0 40.484375 -0.234375 40.484375 -2.679688 L 40.484375 -53.246094 L 60.730469 -53.246094 C 61.4375 -53.246094 63.011719 -53.484375 63.011719 -56.082031 L 63.011719 -62.226562 C 63.011719 -64.667969 61.4375 -64.902344 60.730469 -64.902344 Z M 60.730469 -64.902344 "/></g></g></g><g fill="#32e0c4" fill-opacity="1"><g transform="translate(389.107595, 206.46189)"><g><path d="M 51.75 -11.65625 L 26.152344 -11.65625 C 24.496094 -11.65625 23.15625 -11.816406 22.054688 -12.207031 C 21.109375 -12.523438 20.320312 -13.074219 19.769531 -13.941406 C 19.140625 -14.808594 18.667969 -15.988281 18.429688 -17.40625 C 18.117188 -18.984375 18.039062 -20.953125 18.039062 -23.316406 L 18.039062 -62.148438 C 18.039062 -64.667969 16.460938 -64.902344 15.832031 -64.902344 L 8.585938 -64.902344 C 7.875 -64.902344 6.300781 -64.667969 6.300781 -62.148438 L 6.300781 -24.652344 C 6.300781 -20.242188 6.695312 -16.460938 7.402344 -13.390625 C 8.113281 -10.238281 9.214844 -7.640625 10.792969 -5.671875 C 12.367188 -3.625 14.414062 -2.125 16.933594 -1.261719 C 19.296875 -0.394531 22.292969 0.078125 25.757812 0.078125 L 51.75 0.078125 C 52.457031 0.078125 53.957031 -0.234375 53.957031 -2.679688 L 53.957031 -8.902344 C 53.957031 -11.34375 52.457031 -11.65625 51.75 -11.65625 Z M 51.75 -11.65625 "/></g></g></g><g fill="#32e0c4" fill-opacity="1"><g transform="translate(453.293141, 206.46189)"><g><path d="M 53.640625 -14.097656 L 25.914062 -14.097656 C 24.261719 -14.097656 22.921875 -14.335938 21.820312 -14.652344 C 20.792969 -15.042969 20.085938 -15.597656 19.457031 -16.382812 C 18.824219 -17.25 18.351562 -18.429688 18.117188 -19.929688 C 18.039062 -20.320312 18.039062 -20.875 17.957031 -21.265625 C 17.957031 -21.265625 18.039062 -26.9375 18.117188 -26.9375 L 53.324219 -26.9375 C 53.957031 -26.9375 55.53125 -27.253906 55.53125 -29.695312 L 55.53125 -35.917969 C 55.53125 -38.359375 53.957031 -38.597656 53.324219 -38.597656 L 12.679688 -38.515625 C 10.398438 -38.359375 8.429688 -37.179688 7.324219 -35.207031 C 6.929688 -34.578125 6.617188 -33.949219 6.457031 -33.238281 L 6.300781 -23.316406 L 6.300781 -22.921875 C 6.378906 -19.21875 6.773438 -16.070312 7.324219 -13.46875 C 8.035156 -10.320312 9.214844 -7.71875 10.710938 -5.75 C 12.289062 -3.703125 14.335938 -2.285156 16.855469 -1.417969 C 19.296875 -0.472656 22.210938 -0.078125 25.679688 -0.078125 L 53.640625 -0.078125 C 54.347656 -0.078125 55.925781 -0.316406 55.925781 -2.757812 L 55.925781 -11.421875 C 55.925781 -13.863281 54.347656 -14.097656 53.640625 -14.097656 Z M 53.71875 -65.0625 L 8.429688 -65.0625 C 7.796875 -65.0625 6.300781 -64.746094 6.300781 -62.226562 L 6.300781 -56.082031 C 6.300781 -53.640625 7.796875 -53.402344 8.429688 -53.402344 L 53.71875 -53.324219 C 54.347656 -53.324219 55.925781 -53.640625 55.925781 -56.082031 L 55.925781 -62.304688 C 55.925781 -64.746094 54.347656 -65.0625 53.71875 -65.0625 Z M 53.71875 -65.0625 "/></g></g></g></svg>